<svg width="44" height="44" viewBox="0 0 44 44" xmlns="http://www.w3.org/2000/svg">
<path d="M10.4027 5.79117C10.7181 5.79547 11.0335 5.80234 11.348 5.78516C11.3729 6.95477 11.3446 8.12523 11.3626 9.29484C12.2718 9.46758 13.0796 10.107 13.4225 10.9715C13.9519 12.1952 13.4174 13.7284 12.2658 14.3858C12.882 15.9756 13.609 17.5328 14.5535 18.9559C15.1413 19.8102 15.8133 20.6412 16.6976 21.2032C17.3834 21.6552 18.2557 21.8615 19.0592 21.6372C19.9753 21.3871 20.7229 20.7434 21.3382 20.043C22.7528 18.3991 23.6474 16.3933 24.4604 14.403C23.955 14.067 23.5193 13.6098 23.2968 13.0374C22.9719 12.233 23.0484 11.2697 23.5245 10.5401C23.9301 9.88953 24.6185 9.4375 25.3687 9.29141C25.3661 8.12609 25.367 6.96078 25.3678 5.79547C25.6884 5.79547 26.0089 5.79375 26.3295 5.79719C26.3295 6.96078 26.3372 8.12352 26.3252 9.28625C27.1064 9.44867 27.83 9.92391 28.2253 10.6252C28.8217 11.6117 28.6911 12.9678 27.9159 13.822C27.4432 14.3626 26.7549 14.7115 26.0356 14.7527C25.8594 14.7201 25.8689 14.9212 25.8285 15.0303C25.3739 16.7499 24.7637 18.4309 23.9868 20.0319C23.5606 20.9291 23.1146 21.8177 22.7459 22.7406C21.6287 25.4855 21.3021 28.4812 21.3185 31.4246C26.0029 32.2496 30.6822 33.1038 35.365 33.9391C35.1493 34.6541 34.9207 35.3657 34.6929 36.0781L34.6534 36.1108C30.7845 36.3866 26.9139 36.6668 23.0364 36.7802C21.4396 36.8241 19.7853 36.8052 18.2823 36.2002C17.1075 35.7507 16.1321 34.7848 15.7523 33.5773C15.3123 32.3424 15.479 31.0173 15.3931 29.7351C15.3123 27.9665 15.0863 26.1962 14.5939 24.4929C14.1736 22.9907 13.5033 21.577 12.8218 20.1797C11.9779 18.448 11.3205 16.6287 10.8324 14.7665C9.95496 14.7433 9.09988 14.2964 8.6066 13.5668C8.01019 12.7169 7.96637 11.5292 8.49058 10.6346C8.88504 9.93164 9.60691 9.44438 10.395 9.29484C10.3975 8.12695 10.3821 6.95906 10.4027 5.79117ZM9.11191 11.8506C8.99074 12.7745 9.72894 13.7034 10.6579 13.7851C11.0524 13.5883 11.3936 13.2978 11.7674 13.0641C11.8172 13.2016 11.8679 13.3382 11.9186 13.4757C12.595 12.9798 12.8545 12.0045 12.4678 11.2516C12.13 10.5298 11.2612 10.107 10.4852 10.3029C9.75902 10.4576 9.1798 11.1107 9.11191 11.8506ZM24.8909 10.5384C24.3899 10.8555 24.0668 11.4355 24.0796 12.0302C24.0659 12.5914 24.3555 13.1414 24.8118 13.4628C24.8514 13.3287 24.8926 13.1955 24.9356 13.0623C25.3361 13.2884 25.6893 13.6175 26.1181 13.7808C26.9311 13.6751 27.5996 12.9326 27.6203 12.1127C27.6624 11.4364 27.2705 10.7678 26.6707 10.4584C26.1207 10.1662 25.4117 10.1955 24.8909 10.5384Z" fill="white"/>
<path d="M17.7452 15.6226C18.7911 15.3269 19.9882 15.8469 20.4841 16.8145C20.8777 17.533 20.8587 18.4559 20.4445 19.1623C20.0733 19.8008 19.397 20.2572 18.6596 20.3371C17.9025 20.4402 17.1145 20.1463 16.5963 19.5886C15.944 18.8985 15.7678 17.814 16.1709 16.9537C16.4613 16.304 17.056 15.8022 17.7452 15.6226Z"/>
</svg>
