<svg class="sport" width="36" height="36" viewBox="0 0 36 36" xmlns="http://www.w3.org/2000/svg">
<path d="M24.2888 2.15444C25.2162 2.04124 26.183 2.37593 26.8601 3.01718C27.3987 3.5396 27.7707 4.24554 27.8438 4.99647C27.9598 5.95976 27.6082 6.96874 26.91 7.64444C26.2934 8.2646 25.4138 8.61405 24.5398 8.57468C23.4464 8.5571 22.3981 7.91937 21.8567 6.97226C21.4067 6.22905 21.3202 5.29741 21.5452 4.46632C21.8834 3.23655 23.0189 2.27819 24.2888 2.15444Z"/>
<path d="M14.033 7.15777C14.3663 7.07762 14.6961 7.19996 15.0202 7.26254C16.7619 7.64012 18.5021 8.02121 20.243 8.39949C20.4174 8.43254 20.5834 8.49934 20.7373 8.58723C21.3083 8.90996 21.8778 9.23481 22.4544 9.54699C22.9691 9.81629 23.3579 10.3113 23.5048 10.8724C23.6384 11.4054 23.5773 11.9889 23.3108 12.472C22.1928 14.6777 21.0755 16.8841 19.9604 19.0912C21.2323 20.2007 22.4937 21.3229 23.7523 22.4479C24.1524 22.7735 24.3739 23.3163 24.2741 23.8275C23.8297 26.1639 23.3867 28.5011 22.9416 30.8383C22.8769 31.1596 22.8411 31.4915 22.7138 31.7967C22.4663 32.3332 21.9551 32.7494 21.3659 32.8408C20.5201 33.0061 19.6159 32.4471 19.3662 31.6265C19.2263 31.2447 19.2734 30.8299 19.3634 30.4432C19.76 28.4491 20.1334 26.4501 20.5348 24.4575C18.7552 23.3507 16.9679 22.2567 15.1855 21.1549C14.514 20.8265 13.9824 20.2317 13.7314 19.5279C13.4635 18.7769 13.5198 17.9057 13.9128 17.2089C15.1482 15.1945 16.3899 13.1843 17.619 11.1656C16.5791 10.8225 15.5314 10.5039 14.4908 10.1629C13.0367 11.2057 11.5876 12.2547 10.1328 13.2968C9.7707 13.5745 9.2757 13.6434 8.84398 13.5098C8.32085 13.3418 7.90882 12.8552 7.86382 12.3025C7.80405 11.8209 8.00726 11.3132 8.39538 11.0179C9.99851 9.87395 11.5974 8.72363 13.1977 7.57473C13.4473 7.3877 13.7173 7.20488 14.033 7.15777Z"/>
<path d="M22.827 16.5446C23.3663 15.4878 23.9084 14.4324 24.4365 13.3707C24.8668 14.3825 25.2922 15.3957 25.7127 16.4117C26.9389 16.4139 28.1659 16.4124 29.3921 16.4124C29.7563 16.4153 30.1311 16.3829 30.482 16.5017C31.0599 16.7092 31.4839 17.3117 31.4291 17.9326C31.4213 18.6913 30.7091 19.322 29.9609 19.2988C28.4366 19.2988 26.9115 19.2974 25.3871 19.2995C25.0461 19.3037 24.6861 19.3114 24.376 19.1497C24.0667 19.0049 23.8269 18.7398 23.6842 18.4332C23.398 17.8039 23.1118 17.1746 22.827 16.5446Z"/>
<path d="M10.8767 22.8552C11.4336 22.0072 11.9475 21.1304 12.522 20.2951C12.8792 21.1023 13.4923 21.7921 14.2531 22.2399C14.6208 22.4572 14.9759 22.6963 15.3478 22.9079C14.8282 23.687 14.2664 24.4372 13.7328 25.2057C13.2336 25.9173 12.4081 26.3933 11.5369 26.4306C9.44722 26.4313 7.35824 26.4299 5.26925 26.4313C4.45996 26.4137 3.72168 25.764 3.593 24.9653C3.44113 24.2073 3.85035 23.3776 4.54855 23.045C4.79113 22.9206 5.06113 22.8439 5.33535 22.8538C7.18246 22.8566 9.02957 22.8524 10.8767 22.8552Z" />
</svg>
