<svg width="20" height="20" viewBox="0 0 20 20" fill="none" xmlns="http://www.w3.org/2000/svg">
<g opacity="0.5">
<path fill-rule="evenodd" clip-rule="evenodd" d="M7.89453 6.53008C7.89453 3.60527 10.2697 1.25 13.2812 1.25C16.2773 1.25 18.75 3.58237 18.75 6.52227C18.75 9.46062 16.2789 11.8035 13.2812 11.8035C12.6244 11.8035 12.0707 11.7195 11.5009 11.5158C11.4811 11.5297 11.4592 11.5448 11.4347 11.5616C11.3156 11.6427 11.1097 11.7769 10.8703 11.8285C10.7426 11.8561 10.6254 11.8444 10.5714 11.838C10.5022 11.8299 10.4326 11.8162 10.3716 11.8027C10.2531 11.7764 10.1182 11.7392 10.0027 11.7073L9.99387 11.7048C9.92968 11.6871 9.87096 11.6709 9.81771 11.6569C9.83451 11.6941 9.85433 11.7357 9.87733 11.7828C9.88561 11.7997 9.89467 11.818 9.90427 11.8374C9.9488 11.9275 10.0047 12.0406 10.0458 12.1414C10.072 12.2058 10.1015 12.2871 10.1211 12.3758C10.1394 12.4588 10.1594 12.5936 10.1269 12.7463C10.0886 12.926 9.99356 13.0864 9.91965 13.1945C9.83562 13.3174 9.73044 13.442 9.61441 13.5559C9.40878 13.7576 9.06019 14.0324 8.64654 14.0806C8.38632 14.1109 8.15638 14.032 8.0199 13.9778C7.96654 13.9567 7.91467 13.9338 7.86799 13.9125C7.87083 13.9193 7.87364 13.9261 7.87641 13.9328C7.92152 14.0426 7.99648 14.2387 7.99209 14.4633C7.98337 14.9952 7.67175 15.3175 7.45248 15.5195C7.33126 15.6328 7.1759 15.7737 6.98416 15.8773C6.77131 15.9923 6.54069 16.0488 6.27763 16.0457L6.27725 16.0457C6.07177 16.0431 5.85051 15.9954 5.71015 15.9651C5.69263 15.9613 5.67637 15.9578 5.66156 15.9547C5.57952 15.9375 5.52446 15.9272 5.48253 15.9223C5.47955 15.922 5.4768 15.9217 5.47427 15.9214C5.47455 15.9238 5.47483 15.9262 5.47514 15.9286C5.48313 15.9933 5.49075 16.0352 5.50035 16.088C5.50947 16.1382 5.5204 16.1983 5.53516 16.2973C5.57211 16.5451 5.6535 17.1361 5.21911 17.562C5.13548 17.6443 5.07044 17.7129 4.98448 17.8034C4.95364 17.8359 4.92011 17.8712 4.88206 17.9111C4.74088 18.0588 4.55495 18.2497 4.24859 18.5481L4.247 18.5496L4.24569 18.5509C4.00058 18.7866 3.7019 18.758 3.57859 18.7341C3.43919 18.707 3.31475 18.6491 3.22523 18.6015C3.03859 18.5021 2.83848 18.3564 2.66334 18.2175C2.30706 17.9349 1.94618 17.5932 1.79835 17.4387C1.57231 17.2023 1.25 16.7346 1.25 16.1746L1.25 16.1742C1.25013 15.9759 1.29198 15.7799 1.37284 15.5989C1.45173 15.4223 1.56603 15.2638 1.7086 15.1332C1.79504 15.0478 2.12235 14.6798 2.62533 14.1013C3.12514 13.5265 3.7711 12.7758 4.45758 11.9749C5.72086 10.501 7.11859 8.85999 7.98969 7.83724C7.89424 7.39176 7.89439 6.94919 7.89452 6.57109C7.89453 6.55734 7.89453 6.54366 7.89453 6.53008ZM5.47013 15.8623C5.47014 15.8623 5.47014 15.8628 5.47008 15.8637C5.4701 15.8628 5.47013 15.8623 5.47013 15.8623ZM9.75254 11.479C9.75257 11.479 9.75272 11.4798 9.75288 11.4814C9.7526 11.4797 9.75251 11.4789 9.75254 11.479ZM9.60298 11.6081C9.60343 11.6082 9.6039 11.6082 9.60441 11.6083C9.59535 11.6078 9.59413 11.6071 9.60298 11.6081ZM13.2812 2.5C10.9413 2.5 9.14453 4.31426 9.14453 6.53008C9.14453 7.05838 9.1505 7.44176 9.27007 7.78588C9.34282 7.99528 9.29922 8.22754 9.15548 8.39629C9.09195 8.47088 9.02447 8.5501 8.95343 8.63351C8.08335 9.65507 6.67722 11.306 5.40667 12.7884C4.71962 13.59 4.07139 14.3433 3.56864 14.9215C3.07986 15.4836 2.69941 15.9146 2.57008 16.039C2.56484 16.0441 2.55952 16.049 2.55411 16.0539C2.53709 16.0691 2.52348 16.0878 2.51416 16.1087C2.50487 16.1295 2.50004 16.152 2.5 16.1748C2.50005 16.2164 2.51405 16.2825 2.55668 16.3675C2.59873 16.4513 2.65501 16.5259 2.70165 16.5746C2.81164 16.6896 3.13044 16.9925 3.44018 17.2382C3.51451 17.2972 3.58256 17.3482 3.64264 17.3904C3.78756 17.2457 3.89238 17.1374 3.97829 17.0475C4.00915 17.0152 4.03863 16.9842 4.06745 16.9538C4.14956 16.8673 4.2263 16.7864 4.31441 16.6987C4.31643 16.6725 4.31778 16.6088 4.29882 16.4816C4.29548 16.4592 4.28845 16.4179 4.28011 16.3689C4.26415 16.2752 4.24342 16.1535 4.23458 16.0819C4.21958 15.9606 4.19235 15.7069 4.29663 15.4636C4.38553 15.2561 4.50845 15.0577 4.70709 14.9099C4.90006 14.7664 5.1037 14.7186 5.23062 14.6919C5.38308 14.6598 5.52726 14.6691 5.6266 14.6807C5.73091 14.6928 5.83551 14.714 5.91852 14.7314C5.92971 14.7338 5.94059 14.7361 5.95117 14.7383C6.12631 14.7751 6.21981 14.7948 6.29284 14.7958C6.35387 14.7965 6.37324 14.7866 6.38986 14.7776C6.42664 14.7577 6.47967 14.7178 6.60037 14.6049C6.60164 14.6037 6.60291 14.6025 6.60418 14.6014C6.69136 14.5212 6.72365 14.481 6.7374 14.4588C6.73788 14.458 6.73831 14.4573 6.7387 14.4566C6.73503 14.4458 6.7292 14.4298 6.72015 14.4077C6.70707 14.3759 6.69278 14.3439 6.67378 14.3014C6.66992 14.2928 6.66587 14.2837 6.6616 14.2741C6.63851 14.2224 6.60973 14.1571 6.58336 14.0879C6.53317 13.956 6.46897 13.7539 6.48228 13.5214C6.49712 13.2622 6.60466 13.0178 6.80878 12.8179C7.03896 12.5925 7.31744 12.5096 7.58267 12.5205C7.81386 12.5301 8.01836 12.6103 8.14887 12.6666C8.20702 12.6917 8.26587 12.7191 8.31454 12.7418C8.32358 12.7461 8.33227 12.7501 8.34053 12.754C8.39835 12.7808 8.44198 12.8005 8.48059 12.8158C8.49615 12.822 8.50874 12.8265 8.51863 12.8299C8.52891 12.8249 8.54247 12.8178 8.55934 12.8076C8.6131 12.7749 8.67608 12.7253 8.7391 12.6635C8.78369 12.6197 8.82264 12.5754 8.85379 12.5354C8.83712 12.4999 8.81742 12.4599 8.79373 12.4119C8.78172 12.3875 8.76868 12.3611 8.7545 12.3321C8.69886 12.2183 8.62655 12.0668 8.57578 11.9107C8.52884 11.7665 8.47018 11.5323 8.52693 11.2798L8.52737 11.2778C8.5276 11.2768 8.52783 11.2758 8.52807 11.2748C8.56136 11.1321 8.63349 11.0165 8.67539 10.9548C8.72704 10.8787 8.78878 10.8042 8.85412 10.737C8.95889 10.6292 9.17166 10.4367 9.44926 10.3764C9.57729 10.3485 9.69483 10.3603 9.74889 10.3667C9.81807 10.3748 9.88771 10.3884 9.94874 10.402C10.0672 10.4283 10.2021 10.4655 10.3176 10.4974L10.3264 10.4999C10.4531 10.5348 10.5585 10.5637 10.6426 10.5824C10.6437 10.5827 10.6448 10.5829 10.6458 10.5831C10.6687 10.5697 10.6965 10.552 10.7304 10.5289C10.7697 10.502 10.8079 10.4745 10.8525 10.4424C10.8647 10.4336 10.8773 10.4245 10.8906 10.415C10.9471 10.3743 11.0166 10.325 11.0876 10.2808C11.2617 10.1724 11.4778 10.1563 11.666 10.2376C12.185 10.462 12.6502 10.5535 13.2812 10.5535C15.6352 10.5535 17.5 8.72454 17.5 6.52227C17.5 4.32153 15.6368 2.5 13.2812 2.5ZM10.7173 10.5966C10.7169 10.5965 10.7164 10.5964 10.7159 10.5964C10.725 10.5969 10.7262 10.5976 10.7173 10.5966ZM8.91903 12.4371C8.91908 12.4371 8.9188 12.4377 8.91814 12.4391C8.91867 12.4379 8.91899 12.4372 8.91903 12.4371ZM14.375 5C14.2514 5 14.1305 5.03666 14.0278 5.10533C13.925 5.17401 13.8449 5.27162 13.7976 5.38582C13.7503 5.50003 13.7379 5.62569 13.762 5.74693C13.7861 5.86817 13.8456 5.97953 13.9331 6.06694C14.0205 6.15435 14.1318 6.21388 14.2531 6.23799C14.3743 6.26211 14.5 6.24973 14.6142 6.20243C14.7284 6.15512 14.826 6.07501 14.8947 5.97223C14.9633 5.86945 15 5.74861 15 5.625C15 5.45924 14.9342 5.30027 14.8169 5.18306C14.6997 5.06585 14.5408 5 14.375 5ZM13.3333 4.06599C13.6416 3.85997 14.0042 3.75 14.375 3.75C14.8723 3.75 15.3492 3.94754 15.7008 4.29917C16.0525 4.65081 16.25 5.12772 16.25 5.625C16.25 5.99584 16.14 6.35835 15.934 6.66669C15.728 6.97504 15.4351 7.21536 15.0925 7.35727C14.7499 7.49919 14.3729 7.53632 14.0092 7.46397C13.6455 7.39162 13.3114 7.21305 13.0492 6.95082C12.787 6.6886 12.6084 6.35451 12.536 5.99079C12.4637 5.62708 12.5008 5.25008 12.6427 4.90747C12.7846 4.56486 13.025 4.27202 13.3333 4.06599Z" fill="#5D748A"/>
</g>
</svg>
