<svg width="20" height="20" viewBox="0 0 20 20" fill="none" xmlns="http://www.w3.org/2000/svg">
<g opacity="0.5">
<path fill-rule="evenodd" clip-rule="evenodd" d="M9.48289 5.54607C9.97119 6.08735 9.81637 6.70056 9.38462 7.2824C9.28225 7.42034 9.16426 7.55627 9.02176 7.70604C8.95336 7.77793 8.90002 7.83199 8.78846 7.94367C8.53509 8.19728 8.3221 8.41039 8.14948 8.583C8.06577 8.6667 8.63729 9.80876 9.74645 10.919C10.855 12.0287 11.997 12.6006 12.0811 12.5164L12.7196 11.8775C13.0713 11.5255 13.2575 11.3557 13.5134 11.1878C14.0454 10.8388 14.6256 10.744 15.115 11.1816C16.7128 12.3245 17.617 13.0259 18.06 13.4862C18.924 14.3839 18.8107 15.7658 18.0649 16.5541C17.8062 16.8275 17.4783 17.1556 17.091 17.529C14.748 19.8733 9.80328 18.4466 6.01368 14.6533C2.22323 10.8591 0.797371 5.91395 3.13541 3.57465C3.55516 3.14831 3.69355 3.00999 4.10235 2.60719C4.86345 1.85724 6.3091 1.73982 7.18789 2.60793C7.65015 3.06456 8.3871 4.01276 9.48289 5.54607ZM13.8976 13.0559L13.259 13.6949C12.1734 14.7811 10.3246 13.8552 8.56834 12.0973C6.81087 10.3381 5.88603 8.48998 6.97199 7.40411C7.14438 7.23174 7.35717 7.01883 7.61034 6.76541C7.71249 6.66316 7.75922 6.61579 7.8153 6.55685C7.89172 6.47654 7.95451 6.406 8.00478 6.34359C7.03364 4.9908 6.37348 4.14551 6.01759 3.79395C5.83379 3.61239 5.42224 3.64582 5.27115 3.79469C4.86819 4.19174 4.73574 4.32413 4.31769 4.74872C2.81409 6.25314 3.96515 10.2452 7.1918 13.4751C10.4174 16.7039 14.4089 17.8555 15.924 16.3398C16.3053 15.972 16.616 15.6611 16.8552 15.4084C17.028 15.2257 17.0589 14.8488 16.8601 14.6422C16.529 14.2982 15.7183 13.6661 14.3186 12.661C14.2166 12.7431 14.0912 12.8622 13.8976 13.0559Z" fill="#5D748A"/>
</g>
</svg>
