<svg class="sport" width="36" height="36" viewBox="0 0 36 36" xmlns="http://www.w3.org/2000/svg">
<path d="M29.0405 23.2082C27.8578 22.2842 26.1412 22.2843 24.9586 23.2082C24.4119 23.6353 23.5874 23.6352 23.0408 23.2082C22.5101 22.7935 21.8718 22.5656 21.2225 22.5231V13.5053L32.9985 13.5154L33 11.7577L29.6596 11.7548V8.39233C29.6596 5.58161 27.3729 3.29492 24.5621 3.29492C21.7514 3.29492 19.4647 5.58161 19.4647 8.39233V11.732H16.5352V8.39233C16.5352 5.58161 14.2485 3.29492 11.4378 3.29492C8.62707 3.29492 6.34038 5.58161 6.34038 8.39233V11.732C6.34038 11.7379 6.49928 11.735 3.00146 11.732L3 13.4897L6.34044 13.4926V23.4918C5.89369 23.5866 5.40609 23.4928 5.04178 23.2082C4.46776 22.7597 3.74293 22.5127 3.00076 22.5127V24.2705C3.35266 24.2705 3.69313 24.3851 3.9596 24.5933C5.14232 25.5172 6.85897 25.5172 8.04157 24.5933C8.58828 24.1662 9.41271 24.1662 9.95931 24.5933C11.142 25.5172 12.8587 25.5172 14.0413 24.5932C14.5879 24.1662 15.4124 24.1662 15.959 24.5932C17.1416 25.5172 18.8583 25.5172 20.0409 24.5932C20.5876 24.1661 21.4121 24.1662 21.9587 24.5932C23.1414 25.5172 24.858 25.5172 26.0406 24.5932C26.5873 24.1662 27.4117 24.1661 27.9584 24.5932C29.141 25.5172 30.8577 25.5171 32.0404 24.5932C32.3068 24.385 32.6473 24.2704 32.9992 24.2704V22.5127C32.2569 22.5127 31.5321 22.7596 30.9582 23.2081C30.4116 23.6353 29.5871 23.6352 29.0405 23.2082ZM8.09817 17.2396H19.4648V19.2316H8.09817V17.2396ZM21.2225 8.39233C21.2225 6.55082 22.7207 5.05265 24.5622 5.05265C26.4037 5.05265 27.9019 6.55082 27.9019 8.39233V11.732H21.2225V8.39233ZM8.09817 8.39233C8.09817 6.55082 9.59634 5.05265 11.4378 5.05265C13.2794 5.05265 14.7775 6.55082 14.7775 8.39233V11.732H8.09817V8.39233ZM19.4648 13.5039V15.4819H8.09817V13.4941L19.4648 13.5039ZM17.0411 23.2082C15.8584 22.2842 14.1418 22.2843 12.9592 23.2082C12.4124 23.6353 11.588 23.6352 11.0414 23.2082C10.202 22.5523 9.09375 22.3626 8.09817 22.6377V20.9894H19.4648V22.885C19.2883 22.9761 19.1186 23.0834 18.9589 23.2082C18.4122 23.6353 17.5878 23.6352 17.0411 23.2082Z" fill="#558EF7"/>
<path d="M29.0405 26.9578C27.8578 26.0339 26.1411 26.0339 24.9585 26.9578C24.4118 27.3849 23.5874 27.3849 23.0408 26.9578C21.8582 26.0338 20.1414 26.0339 18.9588 26.9578C18.4122 27.3849 17.5878 27.3849 17.0411 26.9577C15.8584 26.0338 14.1418 26.0339 12.9592 26.9577C12.4125 27.3849 11.588 27.3848 11.0414 26.9577C9.85884 26.0338 8.14207 26.0338 6.95947 26.9577C6.41282 27.3848 5.58833 27.3848 5.04179 26.9577C4.46778 26.5093 3.74295 26.2623 3.00078 26.2623V28.0201C3.35268 28.0201 3.69315 28.1347 3.95962 28.3429C5.14233 29.2668 6.85899 29.2667 8.04159 28.3429C8.5883 27.9158 9.41273 27.9158 9.95933 28.3429C11.142 29.2668 12.8587 29.2668 14.0413 28.3428C14.5879 27.9158 15.4124 27.9158 15.959 28.3428C17.1416 29.2668 18.8583 29.2667 20.0409 28.3428C20.5877 27.9157 21.4121 27.9158 21.9587 28.3428C23.1414 29.2667 24.8581 29.2667 26.0407 28.3428C26.5873 27.9158 27.4117 27.9157 27.9584 28.3428C29.141 29.2667 30.8577 29.2667 32.0404 28.3428C32.3068 28.1346 32.6473 28.02 32.9992 28.02V26.2623C32.257 26.2623 31.5321 26.5092 30.9582 26.9577C30.4116 27.3849 29.5871 27.3849 29.0405 26.9578Z"/>
<path d="M29.0405 30.6269C27.8578 29.7029 26.1411 29.703 24.9585 30.6269C24.4118 31.054 23.5874 31.0539 23.0408 30.6269C21.8582 29.7029 20.1414 29.7029 18.9588 30.6269C18.4122 31.054 17.5878 31.0539 17.0411 30.6268C15.8584 29.7029 14.1418 29.7029 12.9592 30.6268C12.4125 31.0539 11.588 31.0539 11.0414 30.6268C9.85884 29.7028 8.14207 29.7029 6.95947 30.6268C6.41288 31.0539 5.58839 31.0539 5.04179 30.6268C4.46778 30.1784 3.74295 29.9314 3.00078 29.9314V31.6891C3.35268 31.6891 3.69315 31.8038 3.95962 32.012C5.14233 32.9359 6.85899 32.9358 8.04159 32.012C8.5883 31.5848 9.41273 31.5849 9.95933 32.012C11.142 32.9359 12.8587 32.9358 14.0413 32.0119C14.5879 31.5849 15.4124 31.5848 15.959 32.0119C17.1416 32.9359 18.8583 32.9358 20.0409 32.0119C20.5877 31.5848 21.4121 31.5848 21.9587 32.0119C23.1414 32.9358 24.8581 32.9358 26.0407 32.0118C26.5873 31.5848 27.4117 31.5848 27.9584 32.0118C29.141 32.9358 30.8577 32.9358 32.0404 32.0118C32.3068 31.8037 32.6473 31.6891 32.9992 31.6891V29.9313C32.257 29.9313 31.5321 30.1783 30.9582 30.6267C30.4116 31.054 29.5871 31.054 29.0405 30.6269Z"/>
</svg>
