<svg width="20" height="20" viewBox="0 0 20 20" fill="none" xmlns="http://www.w3.org/2000/svg">
<g opacity="0.5">
<path d="M3.33332 2.5C2.41249 2.5 1.66666 3.24583 1.66666 4.16667V14.1667C1.66666 15.0875 2.41249 15.8333 3.33332 15.8333H15L17.3233 18.1567C17.6958 18.5292 18.3333 18.265 18.3333 17.7383V4.16667C18.3333 3.24583 17.5875 2.5 16.6667 2.5H3.33332ZM6.66666 5.83333C7.07582 5.83333 7.44332 6.0825 7.59416 6.4625L9.60832 11.5175C9.79582 11.9883 9.44916 12.5 8.94249 12.5C8.63999 12.5 8.36916 12.31 8.26749 12.025L7.94332 11.12H5.39082L5.06582 12.025C4.96416 12.31 4.69416 12.5 4.39082 12.5C3.88416 12.5 3.53666 11.9883 3.72499 11.5175L5.73916 6.4625C5.88999 6.0825 6.25749 5.83333 6.66666 5.83333ZM13.75 5.83333C14.0667 5.83333 14.3233 6.09 14.3233 6.40583V6.9525H16.1117C16.4183 6.95333 16.6667 7.20167 16.6667 7.50833V8.04667C16.4975 9.49167 15.85 10.5692 14.7917 11.3017C14.9258 11.3233 15.0625 11.3417 15.2033 11.355C15.4883 11.3825 15.7033 11.6258 15.7033 11.9125C15.7033 12.2383 15.4258 12.5017 15.1017 12.4725C14.4575 12.4142 13.8575 12.2658 13.3333 12.0567C12.75 12.2758 12.0458 12.4108 11.4308 12.4667C11.1058 12.4958 10.8275 12.2367 10.83 11.91C10.8317 11.6183 11.0592 11.38 11.3508 11.36C11.5983 11.3433 11.86 11.315 12.0575 11.275C11.5958 10.8608 11.1558 10.11 10.9517 9.41833C10.845 9.0575 11.125 8.6975 11.5017 8.6975H11.5158C11.7708 8.6975 12.0008 8.8575 12.0725 9.09917C12.2533 9.70917 12.7792 10.4858 13.3858 10.8325C14.4892 10.305 15.2025 9.37083 15.4175 8.04583H11.3808C11.0783 8.04667 10.8333 7.80167 10.8333 7.5C10.8333 7.19833 11.0783 6.95333 11.38 6.95333H13.1767V6.40583C13.1767 6.09 13.4333 5.83333 13.75 5.83333ZM6.66666 7.52583L5.78082 10.0258H7.55166L6.66666 7.52583Z" fill="#5D748A"/>
</g>
</svg>
