<svg width="1316" height="262" viewBox="0 0 1316 262" fill="none" xmlns="http://www.w3.org/2000/svg">
<mask id="mask0" mask-type="alpha" maskUnits="userSpaceOnUse" x="0" y="0" width="1312" height="254">
<rect width="1312" height="254" rx="16" fill="url(#paint0_linear)"/>
</mask>
<g mask="url(#mask0)">
<path d="M769.643 64.1719C832.471 -8.86173 909.872 -17.7856 940.719 -13.1183L1571 -26V277H450C591.063 247.316 691.108 155.464 769.643 64.1719Z" fill="#566B80"/>
<path fill-rule="evenodd" clip-rule="evenodd" d="M868.298 179.246C869.033 179.378 869.474 181.982 869.666 183.496C870.019 184.15 870.286 184.847 870.46 185.57C870.492 185.775 870.492 185.983 870.46 186.188C875.638 188.185 880.932 189.864 886.314 191.218C891.938 192.635 897.815 192.721 903.478 191.468C905.816 192.012 905.11 199.101 904.169 199.292C901.448 199.954 892.786 199.469 884.549 196.483C878.985 194.439 873.659 191.795 868.665 188.6C868.446 188.63 868.223 188.63 868.004 188.6C866.61 188.33 865.249 187.91 863.944 187.35C860.576 187.203 859.532 187.011 859.532 186.6C859.4 185.776 861.753 186.158 863.386 186.011C863.739 186.011 863.768 185.791 863.636 185.732C862.018 184.688 858.635 183.776 859.032 182.952C859.753 182.026 864.077 184.732 864.018 184.173C864.489 183.908 859.106 180.908 859.782 179.908C860.459 178.908 865.283 183.717 865.562 183.276C865.842 182.835 862.533 179.143 863.386 178.761C864.239 178.378 865.695 181.143 867.121 182.717C867.195 182.717 867.518 183.349 868.018 183.143C867.768 181.452 867.724 179.114 868.386 179.217L868.298 179.246Z" fill="#FBD6A0"/>
<path fill-rule="evenodd" clip-rule="evenodd" d="M868.666 188.6C873.687 191.801 879.043 194.444 884.638 196.483C889.66 198.285 894.926 199.316 900.257 199.542C901.007 199.542 901.728 199.542 902.301 199.542C901.184 194.747 900.639 192.012 900.639 192.012L900.463 193.688C900.433 195.033 900.616 196.373 901.007 197.659C900.39 197.691 899.771 197.691 899.154 197.659C894.946 197.541 890.769 196.914 886.711 195.792C880.929 194.221 875.388 191.87 870.239 188.806C870.019 188.541 870.239 187.57 870.239 187.57C869.405 187.82 868.534 187.919 867.665 187.864C866.614 187.805 865.599 187.465 864.724 186.879C863.904 186.907 863.083 186.873 862.268 186.776C861.459 186.688 860.4 186.585 859.518 186.467C859.503 186.51 859.503 186.557 859.518 186.6C859.518 187.011 860.621 187.203 863.93 187.35C865.234 187.91 866.595 188.329 867.989 188.6C868.213 188.631 868.441 188.631 868.666 188.6Z" fill="#F5CA8C"/>
<path fill-rule="evenodd" clip-rule="evenodd" d="M896.609 164.377C898.61 188.026 912.052 206.204 901.757 226.677C959.792 222.721 953.821 148.728 939.29 136.256C931.201 129.329 922.744 129.755 916.553 131.359C901.919 135.124 894.536 140.801 896.609 164.377Z" fill="#763A20"/>
<path fill-rule="evenodd" clip-rule="evenodd" d="M1180.68 107.547L1185.9 129.888L1193.11 174.142C1193.11 174.142 1197.65 186.497 1197.65 187.82C1196.97 190.973 1195.69 193.967 1193.89 196.645C1192.61 197.924 1190.73 199.704 1189.96 198.689C1189.2 197.674 1191.73 195.292 1191.77 194.703C1191.82 194.115 1192.51 191.6 1192.6 191.115C1192.33 189.532 1191.97 187.966 1191.52 186.423C1190.55 185.217 1189.74 184.791 1188.85 186.35C1188.85 186.35 1187.83 192.115 1186.65 192.232C1185.48 192.35 1186.09 185.805 1186.51 183.57C1186.92 181.334 1187.48 180.275 1187.48 179.864C1187.48 179.452 1187.39 177.407 1187.33 175.701L1175.37 131.064L1169.49 110.474L1180.68 107.547Z" fill="#FBD6A0"/>
<path fill-rule="evenodd" clip-rule="evenodd" d="M1186.46 192.071C1185.57 191.424 1186.12 185.57 1186.46 183.467C1186.8 181.364 1187.43 180.172 1187.43 179.761C1187.43 179.349 1187.35 177.305 1187.29 175.598L1175.33 130.962L1171.99 119.431L1180.92 118.622L1176.51 123.711L1189.86 175.187C1189.86 175.187 1187.85 181.584 1186.92 185.879C1186.52 187.917 1186.36 189.996 1186.46 192.071Z" fill="#E8BD80"/>
<path fill-rule="evenodd" clip-rule="evenodd" d="M1055.82 177.055C1058.04 203.954 1049.36 240.605 1049.36 240.605C1046.85 245.738 1046.64 270.02 1044.37 295.17C1041.9 295.688 1039.38 295.969 1036.84 296.008C1036.23 285.242 1031.39 258.666 1034.17 240.12C1033.45 235.502 1032.4 179.04 1032.4 179.04L1055.82 177.055Z" fill="#FBD6A0"/>
<path fill-rule="evenodd" clip-rule="evenodd" d="M1056.99 40.2317C1067.67 64.2489 1050.93 110.254 1045.8 108.386L1032.95 103.723L1034.42 53.233L1056.99 40.2317Z" fill="#763A20"/>
<path fill-rule="evenodd" clip-rule="evenodd" d="M1003.31 56.2921C1003.31 70.6024 1005.43 87.1776 1015.39 103.356L1032.95 103.738L1033.49 35.7018C1027.51 39.7904 1003.28 49.1443 1003.31 56.2921Z" fill="#763A20"/>
<path fill-rule="evenodd" clip-rule="evenodd" d="M1019.87 178.143C1018.58 179.805 1010.89 173.628 1010.89 173.628C1006.91 185.967 1011.22 214.529 1011.65 239.237C1011.65 239.237 1012.17 292.096 1013.12 294.669C1015.33 294.669 1020.58 294.802 1020.58 294.802C1022.42 276.594 1026.55 260.328 1026.08 240.178L1033.54 176.113L1019.87 178.143Z" fill="#FBD6A0"/>
<path fill-rule="evenodd" clip-rule="evenodd" d="M1056.6 104.238C1057.57 103.179 1060.77 98.3553 1060.77 98.3553L1070.79 114.004C1070.79 114.004 1062.96 129.388 1062.73 128.873C1062.49 128.358 1053.74 117.784 1053.74 117.784L1056.6 104.238Z" fill="#AE4283"/>
<path fill-rule="evenodd" clip-rule="evenodd" d="M1009.14 164.862C1003.83 179.805 1006.71 189.644 1010.42 238.855L1051.04 238.075C1057.29 210.676 1060.26 185.997 1056.1 167.892L1009.14 164.862Z" fill="#231916" stroke="#231916" stroke-width="0.22" stroke-miterlimit="22.93"/>
<path fill-rule="evenodd" clip-rule="evenodd" d="M1036.48 95.8109C1031.46 95.9139 1019.87 96.4286 1019.87 96.4286L1005.16 98.1053C1005.83 114.151 1004.68 113.577 1011.31 134.653C1014.65 151.155 1006.52 152.728 1005.9 172.892C1020.17 174.79 1037.29 176.878 1058.1 173.554C1059.1 155.023 1052.39 152.611 1055.16 134.344C1056.93 122.578 1060.71 98.3553 1060.71 98.3553L1049.08 96.4286L1036.48 95.8109Z" fill="#AE4283"/>
<path fill-rule="evenodd" clip-rule="evenodd" d="M1028.98 84.7362C1029.48 93.9577 1024.78 95.0314 1019.84 96.5021C1020.74 99.4436 1029.12 101.179 1034.48 100.738C1039.82 101.179 1048.2 99.3701 1049.18 96.5021C1044.24 95.1196 1038.07 94.2078 1038.58 85.0009L1033.06 84.9274L1028.98 84.7362Z" fill="#FBD6A0"/>
<path d="M1033.49 87.5894C1046.41 87.5894 1056.89 75.974 1056.89 61.6456C1056.89 47.3172 1046.41 35.7018 1033.49 35.7018C1020.57 35.7018 1010.09 47.3172 1010.09 61.6456C1010.09 75.974 1020.57 87.5894 1033.49 87.5894Z" fill="#FBD6A0"/>
<path fill-rule="evenodd" clip-rule="evenodd" d="M1024.56 62.881C1025.09 62.8752 1025.61 62.7133 1026.04 62.4157C1026.48 62.1181 1026.82 61.698 1027.02 61.2084C1027.21 60.7188 1027.26 60.1816 1027.16 59.6643C1027.05 59.147 1026.79 58.6728 1026.42 58.3014C1026.04 57.93 1025.56 57.678 1025.05 57.577C1024.53 57.4761 1023.99 57.5308 1023.5 57.7342C1023.02 57.9377 1022.6 58.2807 1022.31 58.7203C1022.01 59.1598 1021.86 59.6761 1021.86 60.2043C1021.86 60.5577 1021.93 60.9073 1022.07 61.2332C1022.21 61.559 1022.41 61.8546 1022.66 62.1031C1022.91 62.3517 1023.21 62.5483 1023.53 62.6818C1023.86 62.8153 1024.21 62.883 1024.56 62.881Z" fill="#3E3A39"/>
<path fill-rule="evenodd" clip-rule="evenodd" d="M1023.33 60.1161C1023.49 60.1161 1023.65 60.0678 1023.79 59.9773C1023.92 59.8868 1024.03 59.7582 1024.09 59.6077C1024.15 59.4572 1024.17 59.2916 1024.14 59.1318C1024.1 58.972 1024.03 58.8253 1023.91 58.7101C1023.8 58.5949 1023.65 58.5165 1023.49 58.4847C1023.33 58.4529 1023.16 58.4692 1023.01 58.5316C1022.86 58.5939 1022.73 58.6995 1022.64 58.8349C1022.55 58.9704 1022.5 59.1296 1022.5 59.2925C1022.5 59.5109 1022.59 59.7204 1022.75 59.8749C1022.9 60.0293 1023.11 60.1161 1023.33 60.1161Z" fill="#EEEEEF"/>
<path fill-rule="evenodd" clip-rule="evenodd" d="M1027.09 56.101C1024.8 55.715 1022.46 55.785 1020.2 56.3069C1017.74 57.1011 1016.61 55.8951 1019.73 54.6596C1022.09 53.8409 1024.64 53.6933 1027.08 54.2331C1028.52 54.6449 1028.58 56.4539 1027.09 56.101Z" fill="#763A20"/>
<path fill-rule="evenodd" clip-rule="evenodd" d="M1026.8 74.8235C1026.95 77.9709 1030.28 80.5005 1034.39 80.5005C1038.49 80.5005 1041.84 77.9709 1041.99 74.8235H1026.8Z" fill="#4F2211"/>
<path fill-rule="evenodd" clip-rule="evenodd" d="M1028.33 74.8235H1040.46V76.2942C1040.46 76.4464 1040.4 76.5922 1040.29 76.6998C1040.19 76.8074 1040.04 76.8678 1039.89 76.8678H1028.98C1028.9 76.8698 1028.82 76.8564 1028.75 76.8283C1028.68 76.8002 1028.62 76.758 1028.57 76.7043C1028.51 76.6507 1028.47 76.5866 1028.44 76.5161C1028.41 76.4456 1028.4 76.3701 1028.4 76.2942L1028.33 74.8235Z" fill="white"/>
<path fill-rule="evenodd" clip-rule="evenodd" d="M1031.34 68.9404C1031.34 69.9111 1032.67 70.6759 1034.21 70.6759C1035.76 70.6759 1037.04 69.9111 1037.15 68.9404H1031.34Z" fill="#DF9C72"/>
<path fill-rule="evenodd" clip-rule="evenodd" d="M1040.3 30.8777C1024.89 44.2909 1014.55 66.4696 1004.27 71.4407C991.987 40.9964 1015.96 20.3178 1040.3 30.8777Z" fill="#763A20"/>
<path fill-rule="evenodd" clip-rule="evenodd" d="M1022.68 41.217C1015.17 51.6299 1009.31 53.1594 1012.39 87.3247C1000.62 70.2641 1000.09 48.306 1024.4 36.7754L1022.68 41.217Z" fill="#763A20"/>
<path fill-rule="evenodd" clip-rule="evenodd" d="M1028.39 30.8777C1006.16 50.5709 1050.73 41.2906 1059.27 59.4983C1062.17 49.9238 1058.49 23.5682 1028.39 30.8777Z" fill="#763A20"/>
<path fill-rule="evenodd" clip-rule="evenodd" d="M1065.07 104.738C1062.95 102.782 1052.82 110.504 1056.41 117.975C1059.99 125.446 1071.11 147.228 1076.17 152.64C1086.33 163.793 1097.53 173.962 1109.6 183.011L1110.53 177.422C1110.53 177.422 1084.32 145.948 1083.72 144.801C1079.85 137.374 1067.48 107.724 1065.07 104.738Z" fill="#FBD6A0"/>
<path fill-rule="evenodd" clip-rule="evenodd" d="M1043.8 63.0577C1044.33 63.0519 1044.84 62.89 1045.28 62.5923C1045.72 62.2947 1046.05 61.8746 1046.25 61.3851C1046.45 60.8955 1046.5 60.3582 1046.39 59.8409C1046.29 59.3236 1046.03 58.8494 1045.65 58.478C1045.28 58.1066 1044.8 57.8546 1044.28 57.7537C1043.76 57.6527 1043.23 57.7074 1042.74 57.9109C1042.25 58.1143 1041.84 58.4574 1041.54 58.8969C1041.25 59.3364 1041.09 59.8528 1041.09 60.3809C1041.1 60.7344 1041.17 61.084 1041.31 61.4098C1041.44 61.7356 1041.64 62.0312 1041.89 62.2798C1042.14 62.5283 1042.44 62.725 1042.77 62.8584C1043.1 62.9919 1043.45 63.0596 1043.8 63.0577Z" fill="#3E3A39"/>
<path fill-rule="evenodd" clip-rule="evenodd" d="M1042.55 60.2631C1042.71 60.2602 1042.87 60.2094 1043 60.1172C1043.14 60.0249 1043.24 59.8953 1043.3 59.7446C1043.36 59.5938 1043.38 59.4287 1043.34 59.2699C1043.31 59.1112 1043.23 58.9658 1043.11 58.8521C1043 58.7384 1042.85 58.6614 1042.69 58.6308C1042.53 58.6001 1042.37 58.6173 1042.22 58.68C1042.07 58.7428 1041.94 58.8483 1041.85 58.9834C1041.76 59.1185 1041.71 59.2772 1041.71 59.4395C1041.71 59.5489 1041.73 59.6572 1041.78 59.7581C1041.82 59.859 1041.88 59.9504 1041.96 60.0271C1042.04 60.1038 1042.13 60.1641 1042.23 60.2046C1042.33 60.2452 1042.44 60.265 1042.55 60.2631Z" fill="#EEEEEF"/>
<path fill-rule="evenodd" clip-rule="evenodd" d="M1039.87 55.7038C1042.52 55.2086 1045.23 55.2536 1047.86 55.8362C1050.73 56.7334 1052.02 55.3215 1048.39 53.9243C1045.65 53.0266 1042.73 52.8893 1039.92 53.5272C1038.21 54.0566 1038.15 56.1451 1039.87 55.7038Z" fill="#763A20"/>
<path fill-rule="evenodd" clip-rule="evenodd" d="M1055.36 81.5005C1061.39 68.4698 1064.1 39.2315 1043.3 32.1278C1045.24 37.7019 1055.96 42.4671 1055.36 81.5005Z" fill="#763A20"/>
<path fill-rule="evenodd" clip-rule="evenodd" d="M1107.62 106.827L1102.41 129.167L1094.34 174.025L1100.51 176.599L1112.94 130.241L1118.87 109.68L1107.62 106.827Z" fill="#FBD6A0"/>
<path fill-rule="evenodd" clip-rule="evenodd" d="M1102.79 168.098L1112.93 130.241L1115.75 120.519L1109.45 119.166L1111.03 122.108C1110.01 126.064 1100.16 164.936 1100.16 164.936L1102.79 168.098Z" fill="#E8BD80"/>
<path fill-rule="evenodd" clip-rule="evenodd" d="M1120.47 171.113C1119.62 174.937 1120.21 217.956 1120.59 224.324C1120.9 229.428 1121.65 265.27 1121.44 280.33C1121.44 280.33 1119.71 291.449 1119.74 291.449L1135.18 294.743C1136.55 262.696 1141.63 189.365 1141.84 191.071C1142.05 192.777 1148.97 227.501 1149.19 229.634C1149.41 231.766 1155.19 294.758 1155.19 294.758C1155.19 294.758 1171.01 292.581 1170.93 291.522C1170.93 291.272 1167.99 280.609 1167.99 280.609C1166.89 264.784 1166.12 231.163 1166.14 229.31C1166.14 226.913 1165.81 168.23 1165.81 168.23L1141.62 172.54L1120.47 171.113Z" fill="#231916"/>
<path fill-rule="evenodd" clip-rule="evenodd" d="M1129.78 82.795L1116.75 85.4864C1114.84 84.9569 1112.26 87.0601 1112.26 87.0601L1103.12 117.799L1116.44 120.74L1117.91 115.96C1119.34 136.941 1119.67 157.981 1118.9 178.996C1127.63 183.143 1157.9 181.452 1165.86 178.202C1166.99 151.552 1168.37 130.388 1169.68 114.107L1172.52 123.608L1184.02 116.946L1176.05 87.7808C1174.91 86.8249 1173.49 86.2492 1172.01 86.1335C1167.5 84.8834 1162.67 83.1921 1158.77 82.3684C1149.25 80.1329 1141.75 80.3094 1129.78 82.795Z" fill="#57B44B"/>
<path fill-rule="evenodd" clip-rule="evenodd" d="M1137.02 71.5878C1137.53 81.074 1134.32 82.0888 1129.24 83.5302C1130.16 86.4716 1138.8 88.3395 1144.3 87.9424C1149.8 88.3983 1158.42 86.4716 1159.36 83.5302C1154.27 82.0594 1150.68 81.074 1151.21 71.5878L1144.3 71.8084L1137.02 71.5878Z" fill="#F1BD83"/>
<path fill-rule="evenodd" clip-rule="evenodd" d="M1048.64 111.445C1051.09 111.445 1053.49 112.172 1055.53 113.534C1057.57 114.897 1059.16 116.833 1060.09 119.099C1061.03 121.364 1061.28 123.857 1060.8 126.262C1060.32 128.667 1059.14 130.876 1057.41 132.61C1055.67 134.344 1053.46 135.525 1051.06 136.003C1048.65 136.482 1046.16 136.236 1043.9 135.298C1041.63 134.359 1039.69 132.77 1038.33 130.731C1036.97 128.693 1036.24 126.295 1036.24 123.843C1036.24 122.215 1036.56 120.601 1037.18 119.096C1037.8 117.591 1038.72 116.224 1039.87 115.072C1041.02 113.92 1042.39 113.007 1043.89 112.385C1045.4 111.762 1047.01 111.443 1048.64 111.445Z" fill="#AE4283"/>
<path fill-rule="evenodd" clip-rule="evenodd" d="M1001.52 103.503C1005.77 98.0318 1015.93 105.959 1012.34 113.416C1008.75 120.872 995.355 137.168 992.943 144.11C991.119 149.405 988.295 172.054 985.78 182.349C982.707 183.82 978.53 180.54 978.206 178.672C978.206 178.672 982.456 148.346 984.618 141.904C987.266 133.991 994.87 112.666 1001.52 103.503Z" fill="#FBD6A0"/>
<path fill-rule="evenodd" clip-rule="evenodd" d="M973.22 193.586C969.705 196.174 965.602 198.336 960.807 201.528C955.483 192.365 949.674 189.041 949.674 189.041C946.968 188.541 941.908 192.674 942.791 193.321C945.364 195.262 954.557 206.411 959.954 207.925C966.028 207.131 973.809 199.822 976.941 196.571C976.103 195.13 974.176 195.233 973.22 193.586Z" fill="#FBD6A0"/>
<path fill-rule="evenodd" clip-rule="evenodd" d="M974.206 182.761C973.279 183.173 973.5 192.144 972.941 194.218C974.706 194.924 975.191 196.204 976.735 196.821C978.206 195.012 981.148 193.88 981.912 191.424C984.501 190.718 986.736 189.865 986.325 188.982C985.913 188.1 983.28 189.644 981.427 189.938C981.103 189.085 986.839 185.644 985.663 184.688C984.927 184.099 981.471 187.188 980.28 187.732C980.103 187.364 984.883 181.981 983.913 181.54C982.942 181.099 979.824 185.232 978.677 186.585C978.868 184.599 979.971 180.893 979.177 180.923C978.383 180.952 977.118 184.452 976.618 186.291C976.618 186.379 976.132 188.262 975.515 188.188C975.323 186.232 974.941 182.452 974.235 182.746L974.206 182.761Z" fill="url(#paint1_linear)"/>
<path fill-rule="evenodd" clip-rule="evenodd" d="M1078.85 250.474C1078.22 255.827 1075.45 288.992 1076.36 289.183C1077.28 289.375 1085.86 290.566 1085.86 290.566C1085.86 290.566 1091.57 266.24 1092.03 268.902C1092.48 271.564 1096.09 290.022 1096.73 290.389C1097.38 290.757 1106.03 290.566 1106.03 289.728C1106.03 288.889 1104.19 253.886 1104.19 253.886L1078.85 250.474Z" fill="#2E2E35"/>
<path fill-rule="evenodd" clip-rule="evenodd" d="M1077.2 215.014C1074.61 213.632 1061.74 210.117 1061.74 210.117C1061.3 208.47 1055.18 202.41 1051.45 199.174C1051.92 197.751 1052.14 196.26 1052.11 194.762C1052.26 192.027 1052.7 189.879 1052.11 189.541C1051.52 189.203 1049.99 193.497 1049.99 193.497C1049.99 193.497 1048.4 186.261 1047.15 186.144C1045.9 186.026 1048.37 193.497 1048.2 193.174C1048.02 192.85 1043.93 186.35 1043.3 187.026C1042.67 187.703 1045.77 193.586 1045.68 193.909C1045.6 194.233 1040.4 188.159 1039.89 189.365C1039.37 190.571 1044.39 194.998 1044.01 195.248C1043.62 195.498 1039.23 191.938 1038.76 192.777C1038.29 193.615 1043.32 197.424 1043.32 197.424C1044.43 199.057 1045.74 200.704 1047.62 201.042C1050.26 204.822 1055.88 212.617 1058.83 214.75C1062.8 217.603 1071.72 222.103 1072.07 221.353C1072.42 220.603 1077.2 215.014 1077.2 215.014Z" fill="#FBD6A0"/>
<path fill-rule="evenodd" clip-rule="evenodd" d="M1104.57 213.573C1107.16 212.19 1120.03 208.675 1120.03 208.675C1120.47 207.043 1126.59 200.969 1130.32 197.733C1129.86 196.31 1129.63 194.818 1129.66 193.321C1129.52 190.585 1129.07 188.423 1129.66 188.1C1130.25 187.776 1131.78 192.041 1131.78 192.041C1131.78 192.041 1133.37 184.805 1134.62 184.688C1135.87 184.57 1133.4 192.041 1133.57 191.732C1133.75 191.424 1137.84 184.908 1138.47 185.57C1139.1 186.232 1136 192.144 1136.1 192.453C1136.21 192.762 1141.37 186.702 1141.88 187.908C1142.4 189.114 1137.38 193.541 1137.77 193.791C1138.15 194.041 1142.55 190.497 1143.02 191.335C1143.49 192.174 1138.46 195.983 1138.46 195.983C1137.34 197.601 1136.03 199.263 1134.15 199.586C1131.52 203.366 1125.9 211.161 1122.94 213.293C1118.97 216.235 1110.06 220.647 1109.7 219.897C1109.35 219.147 1104.57 213.573 1104.57 213.573Z" fill="#FBD6A0"/>
<path fill-rule="evenodd" clip-rule="evenodd" d="M1114.59 216.014C1117.57 214.849 1120.32 213.16 1122.71 211.028C1123.66 210.108 1124.56 209.126 1125.38 208.087L1126.85 206.234C1129.66 202.66 1132.53 198.63 1132.53 198.63C1133.41 198.748 1134.3 198.544 1135.05 198.057C1136.14 197.34 1137.06 196.391 1137.74 195.277L1143.03 191.321V191.6C1142.65 192.791 1138.46 196.012 1138.46 196.012C1137.34 197.63 1136.03 199.292 1134.15 199.616C1132.52 201.969 1129.74 205.851 1127.15 208.984C1126.66 209.572 1126.18 210.146 1125.68 210.675C1124.84 211.641 1123.91 212.527 1122.91 213.323C1120.01 215.294 1116.96 217.035 1113.79 218.529L1112.54 214.352C1112.52 214.173 1112.46 213.999 1112.38 213.838C1112.38 213.838 1114 216.014 1114.59 216.014Z" fill="#F6C987"/>
<path fill-rule="evenodd" clip-rule="evenodd" d="M1084.2 215.602L1070.16 212.44L1067.36 221.691L1076.3 227.81L1075.94 258.401L1106.16 257.298C1106.16 257.298 1102.01 227.354 1103.31 226.986C1104.6 226.618 1114.78 220.529 1114.78 220.529L1111.97 210.764L1097.82 215.338L1084.2 215.602Z" fill="#B9A13E"/>
<path fill-rule="evenodd" clip-rule="evenodd" d="M1088.45 210.47C1088.45 210.47 1088.07 214.882 1087.7 214.882C1087.33 214.882 1083.29 215.382 1083.29 215.382C1083.29 215.382 1084.56 221.147 1090.26 221.147C1095.97 221.147 1098.23 215.485 1098.23 215.485L1094.13 215.117L1093.76 211.249L1088.45 210.47Z" fill="#FBD6A0"/>
<path fill-rule="evenodd" clip-rule="evenodd" d="M917.906 240.34C917.538 245.061 915.347 261.622 914.964 263.446C914.435 266.093 907.155 300.111 908.405 303.023C908.537 303.347 911.464 302.861 911.464 302.861C911.464 302.861 925.877 255.989 926.245 254.709C926.613 253.43 926.789 243.605 924.965 242.517C922.696 241.543 920.33 240.813 917.906 240.34Z" fill="#FBD6A0"/>
<path fill-rule="evenodd" clip-rule="evenodd" d="M938.82 243.826C938.82 246.194 942.923 263.269 946.012 276.55C949.1 289.831 951.012 301.92 952.1 301.92C953.337 302.086 954.551 302.392 955.718 302.832L949.836 244.194L938.82 243.826Z" fill="#FBD6A0"/>
<path fill-rule="evenodd" clip-rule="evenodd" d="M915.391 228.089C916.788 241.326 909.17 255.71 910.067 256.195C927.333 265.578 942.423 257.666 958.292 254.224C957.748 253.327 949.144 235.105 947.835 224.059L915.391 228.089Z" fill="#EC7477"/>
<path fill-rule="evenodd" clip-rule="evenodd" d="M915.567 231.619C915.567 243.782 909.243 255.754 910.067 256.195C917.116 260.043 925.237 261.46 933.172 260.225C928.142 257.651 919.406 253.606 918.715 252.989C917.715 252.062 918.347 243.399 918.347 242.296C918.347 241.193 919.465 242.105 928.392 241.002C937.32 239.899 948.424 233.648 948.424 233.648C948.424 233.648 941.849 233.045 940.555 232.854L915.729 231.207L915.567 231.619Z" fill="#EB6B70"/>
<path fill-rule="evenodd" clip-rule="evenodd" d="M948.085 199.513C947.556 209.278 948.277 219.044 951.248 232.928C945.089 234.715 938.768 235.888 932.378 236.428C922.553 237.164 913.45 237.384 913.45 237.384C913.45 237.384 914.7 227.677 912.376 208.808C911.979 205.572 911.611 202.925 911.288 200.763C907.535 200.983 903.774 200.983 900.022 200.763L898.845 191.747C909.567 189.188 919.98 186.467 923.024 185.32C933.628 184.011 936.055 183.261 947.424 185.673C951.1 188.497 954.115 191.35 959.292 198.395L952.88 204.278C952.88 204.278 949.556 200.954 948.085 199.513Z" fill="#796BAE"/>
<path fill-rule="evenodd" clip-rule="evenodd" d="M920.583 178.378C922.2 186.158 919.994 185.732 916.17 187.659C922.995 195.895 935.658 191.953 936.908 184.452C929.554 184.452 931.892 183.879 929.083 176.54L920.583 178.378Z" fill="#F6CB8A"/>
<path fill-rule="evenodd" clip-rule="evenodd" d="M919.685 136.389C908.037 137.712 899.786 149.272 901.272 162.185C902.757 175.098 913.361 181.952 925.01 180.614C936.658 179.275 944.938 170.318 943.453 157.376C941.967 144.433 931.348 135.124 919.685 136.389Z" fill="#FBD6A0"/>
<path fill-rule="evenodd" clip-rule="evenodd" d="M943.673 150.67C941.496 149.905 933.157 150.434 924.348 151.787L919.523 147.169C919.523 147.478 920.994 150.111 922.156 152.126C918.048 152.799 913.978 153.687 909.964 154.788L908.169 151.39L909.111 155.038C904.375 156.508 900.904 158.082 900.286 159.818C899.439 154.823 899.439 149.722 900.286 144.728C903.198 129.873 939.82 121.725 943.673 150.67Z" fill="#763A20"/>
<path fill-rule="evenodd" clip-rule="evenodd" d="M978.971 174.113C977.588 180.378 977.338 179.555 974.823 183.688C972.308 187.82 972.706 193.527 972.882 195.218C973.22 198.263 976.279 200.425 978.927 199.086C981.118 197.983 983.089 194.13 983.898 193.203C983.898 193.203 984.354 196.601 985.648 194.395C986.942 192.188 986.383 179.687 986.383 179.687L978.971 174.113Z" fill="#FBD6A0"/>
<path fill-rule="evenodd" clip-rule="evenodd" d="M999.855 134.006C996.8 131.043 992.998 128.964 988.854 127.991C989.119 125.049 996.737 96.7963 1008.46 97.7376C1009.58 97.8258 1015.43 103.135 1014.59 110.974C1013.52 120.74 999.855 134.006 999.855 134.006Z" fill="#AE4283"/>
<path fill-rule="evenodd" clip-rule="evenodd" d="M1064.83 135.124C1069.7 130.079 1076.45 128.594 1076.42 128.388C1076.16 125.446 1069.35 97.0463 1057.63 97.9729C1056.51 98.0611 1050.65 103.37 1051.49 111.21C1052.51 120.931 1064.83 135.124 1064.83 135.124Z" fill="#AE4283"/>
<path fill-rule="evenodd" clip-rule="evenodd" d="M1019.33 112.724C1021.78 112.727 1024.17 113.457 1026.21 114.821C1028.25 116.185 1029.84 118.123 1030.77 120.388C1031.71 122.654 1031.95 125.146 1031.47 127.55C1030.99 129.955 1029.81 132.162 1028.07 133.895C1026.34 135.627 1024.13 136.807 1021.73 137.284C1019.32 137.761 1016.83 137.515 1014.57 136.576C1012.3 135.637 1010.36 134.048 1009 132.009C1007.64 129.971 1006.91 127.574 1006.91 125.123C1006.91 123.493 1007.24 121.88 1007.86 120.375C1008.48 118.869 1009.4 117.502 1010.55 116.351C1011.7 115.199 1013.07 114.286 1014.58 113.664C1016.08 113.042 1017.7 112.722 1019.33 112.724Z" fill="#AE4283"/>
<path fill-rule="evenodd" clip-rule="evenodd" d="M1074.27 199.66C1075.16 199.749 1076.05 199.567 1076.83 199.14C1077.62 198.712 1078.25 198.058 1078.65 197.264C1079.05 196.47 1079.21 195.572 1079.09 194.689C1078.97 193.807 1078.59 192.98 1078 192.318C1077.4 191.656 1076.62 191.19 1075.75 190.981C1074.89 190.772 1073.98 190.829 1073.15 191.146C1072.31 191.463 1071.6 192.025 1071.09 192.757C1070.58 193.489 1070.31 194.357 1070.3 195.247C1070.25 196.358 1070.63 197.447 1071.38 198.273C1072.12 199.1 1073.16 199.599 1074.27 199.66Z" fill="#FBD6A0"/>
<path fill-rule="evenodd" clip-rule="evenodd" d="M1073.26 192.865C1074.13 192.865 1074.94 194.056 1075.07 195.542C1075.2 197.027 1074.6 198.218 1073.73 198.218C1072.86 198.218 1072.05 197.012 1071.92 195.542C1071.79 194.071 1072.39 192.865 1073.26 192.865Z" fill="#EDA46C"/>
<path fill-rule="evenodd" clip-rule="evenodd" d="M1108.79 199.66C1109.68 199.749 1110.57 199.567 1111.35 199.14C1112.13 198.712 1112.77 198.058 1113.17 197.264C1113.57 196.47 1113.73 195.572 1113.61 194.689C1113.49 193.807 1113.11 192.98 1112.51 192.318C1111.92 191.656 1111.14 191.19 1110.27 190.981C1109.4 190.772 1108.5 190.829 1107.66 191.146C1106.83 191.463 1106.11 192.025 1105.61 192.757C1105.1 193.489 1104.83 194.357 1104.82 195.247C1104.77 196.358 1105.15 197.447 1105.9 198.273C1106.64 199.1 1107.68 199.599 1108.79 199.66Z" fill="#FBD6A0"/>
<path fill-rule="evenodd" clip-rule="evenodd" d="M1109.87 192.865C1109 192.865 1108.18 194.056 1108.04 195.542C1107.91 197.027 1108.51 198.218 1109.38 198.218C1110.25 198.218 1111.07 197.012 1111.2 195.542C1111.34 194.071 1110.69 192.865 1109.87 192.865Z" fill="#EDA46C"/>
<path fill-rule="evenodd" clip-rule="evenodd" d="M1073.36 197.527C1073 197.292 1069.13 191.262 1072.27 183.084C1075.42 174.907 1082.35 178.422 1082.35 178.422L1081.1 182.187C1080.53 183.246 1073.75 197.762 1073.36 197.527Z" fill="#A95C40"/>
<path d="M1091.53 213.088C1101.63 213.088 1109.82 205.12 1109.82 195.292C1109.82 185.463 1101.63 177.496 1091.53 177.496C1081.42 177.496 1073.23 185.463 1073.23 195.292C1073.23 205.12 1081.42 213.088 1091.53 213.088Z" fill="#FBD6A0"/>
<path fill-rule="evenodd" clip-rule="evenodd" d="M1099.78 192.483C1100.19 192.495 1100.6 192.592 1100.97 192.766C1101.35 192.941 1101.68 193.19 1101.96 193.498C1102.23 193.806 1102.44 194.167 1102.57 194.559C1102.7 194.951 1102.75 195.365 1102.72 195.777C1102.54 196.592 1102.06 197.309 1101.37 197.779C1100.68 198.25 1099.84 198.439 1099.01 198.307C1098.61 198.283 1098.21 198.178 1097.84 197.998C1097.48 197.819 1097.15 197.568 1096.89 197.262C1096.62 196.955 1096.42 196.598 1096.29 196.212C1096.16 195.825 1096.11 195.418 1096.14 195.012C1096.32 194.208 1096.79 193.499 1097.46 193.029C1098.14 192.559 1098.96 192.364 1099.78 192.483Z" fill="white"/>
<path fill-rule="evenodd" clip-rule="evenodd" d="M1083.51 192.262C1083.91 192.292 1084.31 192.401 1084.67 192.584C1085.03 192.767 1085.35 193.019 1085.61 193.327C1085.88 193.635 1086.08 193.992 1086.2 194.377C1086.32 194.762 1086.37 195.168 1086.33 195.571C1086.16 196.388 1085.68 197.107 1084.99 197.578C1084.3 198.049 1083.45 198.236 1082.63 198.101C1082.22 198.077 1081.83 197.972 1081.46 197.792C1081.1 197.613 1080.77 197.362 1080.5 197.056C1080.24 196.749 1080.03 196.392 1079.91 196.006C1079.78 195.62 1079.73 195.212 1079.76 194.806C1079.93 193.979 1080.42 193.252 1081.12 192.777C1081.82 192.303 1082.68 192.118 1083.51 192.262Z" fill="white"/>
<path fill-rule="evenodd" clip-rule="evenodd" d="M1109.34 198.219C1112.81 190.482 1113.28 187.203 1108.13 181.011C1104.51 170.569 1089.54 174.084 1091.26 167.112C1082.64 168.436 1075.63 177.525 1076.22 182.835C1076.6 186.217 1083.94 188.085 1095.42 186.6C1103.32 185.585 1105.01 185.129 1105.01 185.129C1110.37 191.012 1108.69 191.115 1109.34 198.219Z" fill="#A95C40"/>
<path fill-rule="evenodd" clip-rule="evenodd" d="M1099.57 197.027C1099.94 196.976 1100.28 196.821 1100.56 196.581C1100.84 196.34 1101.05 196.024 1101.15 195.669C1101.26 195.315 1101.26 194.938 1101.16 194.583C1101.05 194.228 1100.85 193.91 1100.57 193.667C1100.29 193.424 1099.95 193.266 1099.59 193.213C1099.22 193.159 1098.85 193.212 1098.51 193.364C1098.17 193.517 1097.89 193.763 1097.69 194.074C1097.49 194.384 1097.38 194.746 1097.38 195.115C1097.42 195.658 1097.67 196.162 1098.08 196.52C1098.49 196.877 1099.03 197.06 1099.57 197.027Z" fill="#3E3A39"/>
<path fill-rule="evenodd" clip-rule="evenodd" d="M1098.56 195.042C1098.64 195.055 1098.73 195.05 1098.81 195.026C1098.9 195.003 1098.98 194.961 1099.04 194.904C1099.11 194.848 1099.16 194.778 1099.2 194.698C1099.23 194.619 1099.25 194.533 1099.25 194.446C1099.25 194.359 1099.23 194.273 1099.2 194.194C1099.16 194.115 1099.11 194.044 1099.04 193.988C1098.98 193.931 1098.9 193.889 1098.81 193.866C1098.73 193.842 1098.64 193.837 1098.56 193.85C1098.47 193.837 1098.38 193.842 1098.3 193.866C1098.21 193.889 1098.14 193.931 1098.07 193.988C1098 194.044 1097.95 194.115 1097.91 194.194C1097.88 194.273 1097.86 194.359 1097.86 194.446C1097.86 194.533 1097.88 194.619 1097.91 194.698C1097.95 194.778 1098 194.848 1098.07 194.904C1098.14 194.961 1098.21 195.003 1098.3 195.026C1098.38 195.05 1098.47 195.055 1098.56 195.042Z" fill="#EEEEEF"/>
<path fill-rule="evenodd" clip-rule="evenodd" d="M1096.54 192.482C1098.26 192.203 1100.02 192.228 1101.73 192.556C1103.59 193.071 1104.44 192.262 1102.07 191.468C1100.28 190.953 1098.4 190.877 1096.57 191.247C1095.45 191.571 1095.42 192.762 1096.54 192.482Z" fill="#A95C40"/>
<path fill-rule="evenodd" clip-rule="evenodd" d="M1083.16 196.718C1083.52 196.668 1083.86 196.514 1084.13 196.277C1084.41 196.039 1084.61 195.728 1084.71 195.379C1084.82 195.03 1084.82 194.659 1084.71 194.31C1084.61 193.96 1084.41 193.648 1084.14 193.409C1083.86 193.17 1083.53 193.015 1083.17 192.962C1082.81 192.91 1082.44 192.962 1082.11 193.112C1081.78 193.262 1081.5 193.505 1081.3 193.811C1081.1 194.116 1081 194.472 1081 194.836C1081.03 195.372 1081.28 195.871 1081.69 196.224C1082.09 196.577 1082.62 196.755 1083.16 196.718Z" fill="#3E3A39"/>
<path fill-rule="evenodd" clip-rule="evenodd" d="M1082.16 194.748C1082.24 194.754 1082.32 194.743 1082.4 194.718C1082.48 194.692 1082.55 194.652 1082.61 194.598C1082.67 194.545 1082.72 194.48 1082.76 194.407C1082.79 194.334 1082.81 194.255 1082.82 194.174C1082.81 194.009 1082.73 193.855 1082.61 193.745C1082.49 193.635 1082.32 193.578 1082.16 193.586C1081.99 193.577 1081.83 193.634 1081.7 193.744C1081.58 193.853 1081.5 194.007 1081.48 194.174C1081.5 194.339 1081.58 194.492 1081.7 194.599C1081.83 194.707 1081.99 194.76 1082.16 194.748Z" fill="#EEEEEF"/>
<path fill-rule="evenodd" clip-rule="evenodd" d="M1085.26 192.35C1083.7 192.094 1082.11 192.118 1080.55 192.424C1078.86 192.88 1078.1 192.144 1080.23 191.424C1081.86 190.962 1083.57 190.896 1085.23 191.233C1086.23 191.483 1086.33 192.571 1085.26 192.35Z" fill="#A95C40"/>
<path fill-rule="evenodd" clip-rule="evenodd" d="M1085.7 204.249C1085.81 206.763 1088.32 208.778 1091.41 208.778C1094.5 208.778 1097 206.763 1097.12 204.249H1085.7Z" fill="#4F2211"/>
<path fill-rule="evenodd" clip-rule="evenodd" d="M1086.85 204.249H1095.95V205.366C1095.96 205.424 1095.95 205.482 1095.93 205.536C1095.91 205.591 1095.87 205.64 1095.83 205.683C1095.8 205.725 1095.75 205.759 1095.69 205.783C1095.64 205.807 1095.58 205.82 1095.53 205.822H1087.28C1087.22 205.82 1087.16 205.807 1087.11 205.783C1087.06 205.759 1087.01 205.725 1086.97 205.683C1086.93 205.64 1086.9 205.591 1086.88 205.536C1086.86 205.482 1086.85 205.424 1086.85 205.366V204.249Z" fill="white"/>
<path fill-rule="evenodd" clip-rule="evenodd" d="M1088.69 200.616C1088.69 201.278 1090 201.807 1091.53 201.807C1093.06 201.807 1094.31 201.278 1094.35 200.616H1088.69Z" fill="#DF9C72"/>
<path fill-rule="evenodd" clip-rule="evenodd" d="M1102.37 181.79C1103.34 182.844 1104.22 183.976 1105.01 185.173C1105.01 185.173 1105.65 186.129 1100.44 187.923C1095.23 189.718 1093.2 189.071 1093.66 188.982C1094.51 188.561 1095.33 188.069 1096.1 187.512C1093.12 188.183 1090.08 188.586 1087.03 188.718C1082.75 188.806 1080.95 188.159 1081.73 188.115C1082.61 187.961 1083.46 187.684 1084.26 187.291C1083.76 187.423 1082.42 188.438 1079.11 187.012C1075.8 185.585 1074.36 182.32 1075.01 182.599C1077.94 182.545 1080.86 182.299 1083.76 181.864C1086.06 181.511 1102.37 181.79 1102.37 181.79Z" fill="#A95C40"/>
<path fill-rule="evenodd" clip-rule="evenodd" d="M933.378 156.303C933.852 156.339 934.314 156.47 934.737 156.688C935.159 156.906 935.534 157.205 935.84 157.57C936.145 157.934 936.375 158.356 936.515 158.81C936.656 159.264 936.704 159.742 936.658 160.215C936.472 161.156 935.928 161.989 935.141 162.537C934.354 163.086 933.384 163.308 932.437 163.156C931.962 163.119 931.5 162.988 931.076 162.771C930.653 162.553 930.277 162.254 929.97 161.89C929.664 161.526 929.433 161.104 929.291 160.65C929.148 160.196 929.098 159.718 929.142 159.244C929.335 158.303 929.883 157.473 930.671 156.925C931.46 156.377 932.429 156.154 933.378 156.303Z" fill="white"/>
<path fill-rule="evenodd" clip-rule="evenodd" d="M913.817 159.715C914.291 159.75 914.752 159.879 915.175 160.095C915.597 160.311 915.972 160.609 916.278 160.972C916.584 161.336 916.814 161.756 916.954 162.209C917.095 162.663 917.143 163.14 917.097 163.612C916.908 164.555 916.361 165.387 915.571 165.936C914.782 166.484 913.81 166.705 912.861 166.553C912.388 166.518 911.926 166.389 911.504 166.173C911.081 165.957 910.706 165.659 910.4 165.296C910.095 164.932 909.865 164.512 909.724 164.059C909.584 163.605 909.535 163.128 909.581 162.656C909.771 161.714 910.318 160.881 911.107 160.333C911.897 159.784 912.868 159.563 913.817 159.715Z" fill="white"/>
<path fill-rule="evenodd" clip-rule="evenodd" d="M932.437 156.994C931.971 157.051 931.533 157.245 931.177 157.551C930.821 157.857 930.563 158.261 930.436 158.712C930.309 159.164 930.318 159.643 930.462 160.09C930.606 160.536 930.878 160.931 931.246 161.223C931.613 161.515 932.058 161.692 932.526 161.732C932.993 161.772 933.462 161.673 933.874 161.448C934.286 161.222 934.621 160.88 934.839 160.465C935.057 160.049 935.147 159.578 935.099 159.111C935.025 158.478 934.704 157.9 934.205 157.503C933.706 157.107 933.07 156.923 932.437 156.994Z" fill="#3E3A39"/>
<path fill-rule="evenodd" clip-rule="evenodd" d="M931.407 157.905C931.264 157.923 931.129 157.983 931.019 158.077C930.91 158.171 930.83 158.296 930.791 158.435C930.752 158.573 930.754 158.721 930.798 158.859C930.842 158.996 930.925 159.118 931.038 159.208C931.151 159.299 931.287 159.354 931.431 159.367C931.575 159.381 931.719 159.351 931.847 159.283C931.974 159.214 932.078 159.11 932.146 158.983C932.215 158.856 932.244 158.711 932.231 158.567C932.222 158.469 932.193 158.374 932.146 158.287C932.1 158.2 932.036 158.124 931.959 158.062C931.882 158 931.794 157.954 931.699 157.928C931.604 157.901 931.505 157.893 931.407 157.905Z" fill="#EEEEEF"/>
<path fill-rule="evenodd" clip-rule="evenodd" d="M913.052 160.626C912.596 160.692 912.169 160.891 911.824 161.197C911.479 161.504 911.232 161.905 911.114 162.351C910.996 162.797 911.011 163.268 911.158 163.705C911.305 164.142 911.577 164.527 911.941 164.811C912.304 165.094 912.744 165.265 913.203 165.301C913.663 165.337 914.124 165.238 914.527 165.014C914.931 164.791 915.26 164.454 915.474 164.045C915.688 163.636 915.776 163.174 915.729 162.715C915.695 162.4 915.598 162.096 915.443 161.819C915.289 161.543 915.081 161.3 914.832 161.105C914.582 160.91 914.296 160.768 913.991 160.685C913.685 160.603 913.366 160.583 913.052 160.626Z" fill="#3E3A39"/>
<path fill-rule="evenodd" clip-rule="evenodd" d="M912.038 161.597C911.941 161.606 911.847 161.635 911.761 161.68C911.675 161.726 911.6 161.788 911.538 161.863C911.477 161.939 911.43 162.025 911.403 162.118C911.375 162.212 911.366 162.309 911.376 162.406C911.391 162.55 911.449 162.687 911.541 162.799C911.634 162.91 911.757 162.992 911.897 163.034C912.036 163.075 912.184 163.075 912.323 163.032C912.461 162.99 912.584 162.907 912.676 162.795C912.768 162.682 912.825 162.545 912.839 162.401C912.853 162.257 912.824 162.111 912.756 161.983C912.688 161.855 912.583 161.75 912.455 161.681C912.327 161.613 912.182 161.583 912.038 161.597Z" fill="#EEEEEF"/>
<path fill-rule="evenodd" clip-rule="evenodd" d="M915.861 159.023C913.705 158.887 911.543 159.192 909.508 159.92C907.316 160.921 906.14 159.92 908.89 158.45C910.983 157.458 913.308 157.061 915.611 157.303C917.023 157.523 917.2 159.185 915.861 159.023Z" fill="#A95C40"/>
<path fill-rule="evenodd" clip-rule="evenodd" d="M919.435 171.892C919.772 173.218 920.59 174.372 921.729 175.129C922.868 175.886 924.249 176.192 925.601 175.989C926.954 175.785 928.183 175.086 929.049 174.028C929.916 172.969 930.358 171.626 930.289 170.26L919.435 171.892Z" fill="#4F2211"/>
<path fill-rule="evenodd" clip-rule="evenodd" d="M920.538 171.76L929.201 170.451L929.377 171.672C929.404 171.79 929.384 171.915 929.321 172.019C929.258 172.124 929.157 172.199 929.039 172.231L921.2 173.407C921.08 173.411 920.963 173.37 920.873 173.29C920.782 173.211 920.726 173.1 920.715 172.981L920.538 171.76Z" fill="white"/>
<path fill-rule="evenodd" clip-rule="evenodd" d="M920.7 165.524C920.862 166.348 922.289 166.862 923.965 166.686C925.642 166.509 926.907 165.7 926.907 164.862L920.7 165.524Z" fill="#DF9C72"/>
<path fill-rule="evenodd" clip-rule="evenodd" d="M928.701 155.832C930.743 155.116 932.911 154.826 935.069 154.979C937.437 155.346 938.305 154.067 935.26 153.39C932.978 153.008 930.635 153.252 928.48 154.096C927.186 154.699 927.392 156.361 928.701 155.832Z" fill="#A95C40"/>
<path fill-rule="evenodd" clip-rule="evenodd" d="M914.582 134.094C897.801 138.256 898.698 151.978 899.698 153.582C899.11 145.993 910.214 139.301 916.906 137.845C933.731 134.183 941.099 145.198 941.085 145.198C935.79 133.741 929.598 130.388 914.582 134.094Z" fill="#EF8200"/>
<path fill-rule="evenodd" clip-rule="evenodd" d="M912.332 208.808C914.655 227.677 913.405 237.384 913.405 237.384C913.405 237.384 914.479 237.384 916.273 237.296C919.715 237.178 925.877 236.914 932.334 236.428C937.574 235.994 942.769 235.123 947.865 233.825C949.953 233.31 951.203 232.928 951.203 232.928C948.698 222.358 947.615 211.502 947.982 200.645C947.982 200.263 947.982 199.88 947.982 199.513L948.291 199.807C949.924 201.351 952.703 204.219 952.703 204.219L953.277 203.69L956.042 201.307C956.042 201.307 952.439 198.822 949.468 196.733C947.556 195.38 945.909 194.189 945.688 193.939C945.467 193.689 945.453 194.498 945.497 195.939C945.57 197.924 945.762 201.101 945.791 204.293C945.791 204.837 945.791 205.381 945.791 205.91C945.703 211.896 948.924 230.913 948.924 230.913C948.924 230.913 948.115 230.913 946.703 230.84C944.747 230.84 941.658 230.839 938.084 231.06C936.512 231.201 934.95 231.442 933.407 231.781C926.98 233.09 918.7 235.546 916.832 234.34C915.156 233.266 913.891 214.823 913.376 203.66C913.126 198.748 912.994 195.248 912.994 195.248C912.994 195.248 911.655 198.983 908.714 198.616C908.052 198.527 907.243 198.366 906.346 198.174L904.875 197.836C903.728 197.542 902.566 197.218 901.61 196.954L900.669 196.674L899.345 196.277L899.536 197.748H899.345C899.345 198.277 899.345 198.91 899.345 199.557H899.772L899.919 200.748C899.919 200.748 904.125 201.013 908.125 200.939C909.184 200.939 910.229 200.939 911.185 200.792C911.317 201.66 911.449 202.601 911.596 203.631C911.861 205.131 912.082 206.866 912.332 208.808Z" fill="#7567AA"/>
<path fill-rule="evenodd" clip-rule="evenodd" d="M902.154 152.39C902.126 157.442 902.733 162.477 903.963 167.377C905.949 174.51 911.567 184.746 911.111 184.335C910.655 183.923 904.655 180.364 901.757 176.172C898.86 171.98 898.345 157.891 898.345 157.891L902.154 152.39Z" fill="#763A20"/>
<path fill-rule="evenodd" clip-rule="evenodd" d="M938.981 144.904C940.976 149.55 942.384 154.426 943.173 159.42C944.144 166.774 942.967 178.378 943.173 177.819C943.379 177.26 947.585 171.642 948.585 166.656C949.585 161.67 944.556 148.493 944.556 148.493L938.981 144.904Z" fill="#763A20"/>
<path fill-rule="evenodd" clip-rule="evenodd" d="M986.325 179.717C988.678 168.51 991.207 148.978 992.884 144.11C994.574 140.31 996.665 136.701 999.12 133.344C998.154 132.437 997.1 131.629 995.973 130.932C994.491 134.031 992.831 137.041 991.002 139.948C987.501 145.654 985.472 167.671 984.927 171.554C984.681 173.82 984.558 176.098 984.56 178.378C984.56 179.849 984.56 181.32 984.56 182.79C984.56 183.511 984.56 184.261 984.56 184.879C984.56 185.497 984.56 186.085 984.56 186.629C984.56 187.556 984.56 188.379 984.663 189.026C984.675 189.52 984.729 190.012 984.824 190.497C985.001 191.085 984.824 190.953 984.574 190.615C984.324 190.276 983.766 189.365 983.766 189.365L982.177 191.409L981.471 192.291L980.295 193.762L978.618 195.777C978.399 196.025 978.133 196.227 977.835 196.371C977.537 196.515 977.213 196.598 976.882 196.615C976.618 196.637 976.353 196.637 976.088 196.615C974.967 196.446 973.883 196.088 972.882 195.556C973.087 196.822 973.772 197.959 974.794 198.733C975.367 199.187 976.056 199.469 976.782 199.547C977.508 199.625 978.242 199.496 978.897 199.174C981.089 198.071 983.06 194.218 983.868 193.291C983.868 193.291 984.324 196.689 985.619 194.483C986.913 192.277 986.354 179.775 986.354 179.775L986.325 179.717Z" fill="#F7CD8D"/>
<path fill-rule="evenodd" clip-rule="evenodd" d="M1007.43 121.152C1006.22 122.917 1002.21 128.623 1001.02 128.505C999.547 128.388 996.031 130.917 996.031 130.917C997.159 131.614 998.213 132.422 999.179 133.329C999.414 133.535 999.635 133.756 999.855 133.991C1002.4 131.457 1004.77 128.765 1006.97 125.932C1007.08 127.604 1007.53 129.237 1008.29 130.731C1009.04 132.225 1010.1 133.55 1011.39 134.624C1013.54 135.804 1015.82 136.741 1018.18 137.418C1019.05 137.683 1020 137.962 1021.03 138.227C1027.77 139.977 1033.11 136.477 1034.04 136.756C1034.96 137.036 1047.57 138.418 1050.52 137.3C1052.26 136.673 1053.85 135.669 1055.16 134.359C1057.26 133.034 1058.93 131.108 1059.94 128.829C1062.55 132.52 1064.77 135.08 1064.77 135.08L1065.02 134.83C1065.6 134.255 1066.21 133.714 1066.85 133.212C1065.77 131.399 1064.61 129.642 1063.36 127.946C1062.43 126.672 1061.62 125.308 1060.96 123.873C1059.94 121.784 1058.8 119.24 1057.85 116.842C1057.55 116.151 1057.29 115.46 1057.04 114.798L1056.46 113.21C1056.46 113.607 1056.6 114.019 1056.66 114.445C1056.92 116.136 1057.17 118.048 1057.38 119.887C1057.37 119.965 1057.37 120.044 1057.38 120.122C1057.46 120.975 1057.54 121.813 1057.61 122.608C1057.71 123.784 1057.77 124.843 1057.77 125.711C1057.82 126.384 1057.76 127.06 1057.58 127.711C1057.15 128.526 1056.55 129.239 1055.82 129.8C1053.01 132.066 1049.5 133.283 1045.89 133.241C1043.62 133.241 1041.61 132.991 1040.01 132.785C1038.37 132.624 1036.75 132.314 1035.17 131.859C1034.64 131.638 1031.86 132.785 1028.46 133.506C1025.86 134.157 1023.15 134.223 1020.52 133.697C1014.49 132.226 1014.34 130.108 1011.86 125.593C1011.14 124.039 1010.73 122.361 1010.65 120.652C1010.54 119.321 1010.5 117.986 1010.52 116.651V116.386C1010.58 113.73 1010.78 111.079 1011.12 108.444L1007.74 120.666C1007.74 120.666 1007.65 120.843 1007.43 121.152Z" fill="#A93F80"/>
<path fill-rule="evenodd" clip-rule="evenodd" d="M1065.08 134.815C1069.16 142.301 1073.52 149.758 1076.17 152.625C1080.8 157.655 1085.64 162.538 1090.67 167.215L1091.26 167.112C1091.26 167.303 1091.26 167.495 1091.16 167.671L1094.88 171.039L1095.6 167.039C1093.2 165.053 1089.03 161.818 1084.48 157.817C1079.38 153.331 1071.57 140.595 1066.83 133.197C1066.22 133.702 1065.63 134.242 1065.08 134.815Z" fill="#F7CD8D"/>
<path fill-rule="evenodd" clip-rule="evenodd" d="M1095.6 167.039L1094.88 171.039L1094.75 171.76C1095.25 171.951 1095.78 172.142 1096.34 172.319C1097.98 172.815 1099.6 173.394 1101.19 174.054L1101.6 172.51C1098.22 170.098 1098.19 169.201 1095.6 167.039Z" fill="#FAD297"/>
<path fill-rule="evenodd" clip-rule="evenodd" d="M1101.6 172.51L1101.19 174.054C1102.73 174.625 1104.14 175.513 1105.31 176.661C1106.49 177.808 1107.42 179.19 1108.03 180.717L1108.13 180.584C1108.13 180.584 1108.88 181.378 1109.7 182.334C1109.7 182.026 1109.81 181.731 1109.85 181.423C1108.48 178.491 1106.38 175.96 1103.75 174.069L1101.6 172.51Z" fill="#FAD297"/>
<path fill-rule="evenodd" clip-rule="evenodd" d="M1011.33 134.653C1014.67 151.155 1006.53 152.728 1005.91 172.892L1006.86 173.025C1018.69 174.832 1030.66 175.546 1042.62 175.157C1042.62 175.157 1037.43 170.583 1027.12 168.377C1022.06 167.289 1018.59 166.906 1016.65 165.347C1014.71 163.788 1014.28 161.023 1015.5 155.052C1016.62 149.244 1018.37 143.576 1020.73 138.153C1019.8 137.918 1018.96 137.668 1018.18 137.433C1015.68 137.217 1013.31 136.242 1011.39 134.638L1011.33 134.653Z" fill="#A93F80"/>
<path fill-rule="evenodd" clip-rule="evenodd" d="M1034.17 240.135C1031.39 258.666 1036.23 285.242 1036.84 296.023C1037.93 296.072 1039.01 296.018 1040.08 295.861C1039.98 294.728 1039.83 293.258 1039.67 291.552C1038.58 280.403 1036.73 259.195 1037.21 253.709C1037.59 249.9 1038.68 243.635 1039.73 238.34L1034.02 238.443C1034.06 239.223 1034.12 239.811 1034.17 240.135Z" fill="#F6CA87"/>
<path fill-rule="evenodd" clip-rule="evenodd" d="M1020.93 300.788C1020.8 298.861 1020.65 296.611 1020.55 294.802C1022.39 276.594 1026.52 260.328 1026.05 240.178L1026.24 238.561L1011.65 238.825V239.237C1011.65 239.237 1011.65 240.017 1011.65 241.399C1014.15 241.311 1022.33 241.09 1022.73 242.267C1023.12 243.444 1016.74 283.815 1017.28 288.61C1017.4 289.536 1017.52 290.434 1017.64 291.287C1017.83 292.566 1018 293.743 1018.15 294.758C1018.42 295.919 1018.42 297.126 1018.15 298.287C1016.81 299.406 1015.33 300.336 1013.74 301.052L1020.93 300.788Z" fill="#F6CA87"/>
<path fill-rule="evenodd" clip-rule="evenodd" d="M960.425 205.043C958.525 204.327 956.741 203.336 955.13 202.101L953.409 203.675C955.291 205.515 957.514 206.969 959.954 207.955C964.94 207.308 971.073 202.263 974.838 198.674C974.49 198.413 974.179 198.106 973.912 197.762C971.382 199.424 962.16 205.44 960.425 205.043Z" fill="#FACE91"/>
<path fill-rule="evenodd" clip-rule="evenodd" d="M1085.66 254.915C1084.63 254.642 1083.68 254.123 1082.89 253.404C1082.1 252.684 1081.5 251.785 1081.13 250.783C1080.22 248.513 1079.66 246.117 1079.48 243.679C1078.92 238.517 1077.82 223.868 1077.82 223.868C1077.82 223.868 1076.07 224.971 1072.04 221.368C1069.1 218.735 1068.99 216.706 1069.1 215.794L1067.85 219.971L1067.32 221.691L1076.26 227.81L1075.89 258.401H1078.04L1095.53 257.754C1095.53 257.754 1089.98 255.93 1085.66 254.915Z" fill="#B1982F"/>
<path fill-rule="evenodd" clip-rule="evenodd" d="M1098.64 227.089C1098.64 228.192 1100.23 242.841 1102.23 248.93C1102.74 250.482 1103.01 252.104 1103.03 253.739C1103.04 254.976 1102.94 256.212 1102.72 257.43H1104.38L1106.18 257.357C1106.18 257.357 1102.03 227.413 1103.32 227.045C1104.62 226.677 1114.79 220.588 1114.79 220.588C1114.79 220.588 1114.5 219.618 1114.12 218.279C1108.98 220.809 1098.64 226.31 1098.64 227.089Z" fill="#B1982F"/>
<path fill-rule="evenodd" clip-rule="evenodd" d="M1067.22 217.485C1064.23 216.327 1061.48 214.643 1059.1 212.514C1058.14 211.59 1057.25 210.608 1056.42 209.572L1054.95 207.719C1052.14 204.145 1049.27 200.116 1049.27 200.116C1048.39 200.224 1047.5 200.021 1046.76 199.542C1045.67 198.818 1044.75 197.865 1044.07 196.748L1038.77 192.791C1038.77 192.791 1038.77 192.909 1038.77 193.071C1039.15 194.262 1043.34 197.483 1043.34 197.483C1044.46 199.116 1045.77 200.763 1047.65 201.101C1049.29 203.44 1052.07 207.337 1054.65 210.455C1055.14 211.058 1055.63 211.632 1056.13 212.146C1056.96 213.12 1057.89 214.011 1058.89 214.808C1061.79 216.78 1064.84 218.521 1068.01 220.015L1069.26 215.838C1069.29 215.654 1069.34 215.476 1069.42 215.308C1069.42 215.308 1067.77 217.485 1067.22 217.485Z" fill="#F6C987"/>
<path fill-rule="evenodd" clip-rule="evenodd" d="M1117.88 115.886C1119.31 136.867 1119.64 157.907 1118.87 178.922C1119.24 179.099 1119.65 179.26 1120.09 179.422C1130.12 182.923 1158.21 181.246 1165.83 178.128C1166.96 151.478 1168.34 130.314 1169.65 114.033L1172.49 123.534L1173.12 123.166L1182.99 117.475L1183.99 116.901L1183.55 115.298L1182.58 115.71C1179.52 117.004 1175.39 118.651 1174.49 118.857C1173.84 118.99 1172.18 114.872 1170.51 110.165C1168.36 104.179 1166.21 97.2374 1166.09 96.9285C1165.9 96.3843 1167.84 112.415 1167.75 112.96C1167.67 113.504 1164.34 152.081 1162.74 168.848C1162.34 172.966 1162.05 175.76 1161.95 176.304C1161.39 179.069 1127.85 176.495 1126.02 175.76C1125.72 175.642 1125.41 174.069 1125.1 171.495C1123.4 157.611 1121.47 114.504 1121.31 113.651C1121.15 112.798 1120.4 93.84 1120.4 93.84L1117.22 109.283L1115.84 116.166C1115.84 116.166 1113.53 115.327 1112.34 116.063C1111.69 116.46 1108.7 115.945 1105.57 115.357L1103.98 115.033L1103.16 117.798L1105 118.195L1115.75 120.519L1116.46 120.666L1117.88 115.886Z" fill="#4FA84A"/>
<path fill-rule="evenodd" clip-rule="evenodd" d="M1122.41 55.1303C1125.35 55.1303 1127.65 52.1888 1127.65 48.5414C1127.65 44.8939 1125.29 41.9672 1122.41 41.9672C1119.53 41.9672 1117.18 44.9086 1117.18 48.5414C1117.18 52.1741 1119.53 55.1303 1122.41 55.1303Z" fill="#FBD6A0"/>
<path fill-rule="evenodd" clip-rule="evenodd" d="M1121.06 44.9086C1122.21 44.9086 1123.28 46.7176 1123.46 48.9384C1123.63 51.1592 1122.84 52.9535 1121.69 52.9535C1120.54 52.9535 1119.47 51.1592 1119.31 48.9384C1119.15 46.7176 1119.93 44.9086 1121.06 44.9086Z" fill="#EDA46C"/>
<path fill-rule="evenodd" clip-rule="evenodd" d="M1167.86 55.1303C1170.8 55.1303 1173.09 52.1888 1173.09 48.5414C1173.09 44.8939 1170.74 41.9672 1167.86 41.9672C1164.98 41.9672 1162.62 44.9086 1162.62 48.5414C1162.62 52.1741 1164.98 55.1303 1167.86 55.1303Z" fill="#FBD6A0"/>
<path fill-rule="evenodd" clip-rule="evenodd" d="M1169.2 44.9086C1168.05 44.9086 1166.98 46.7176 1166.81 48.9384C1166.65 51.1592 1167.42 52.9535 1168.56 52.9535C1169.71 52.9535 1170.78 51.1592 1170.96 48.9384C1171.14 46.7176 1170.34 44.9086 1169.2 44.9086Z" fill="#EDA46C"/>
<path fill-rule="evenodd" clip-rule="evenodd" d="M1121.22 51.9241C1120.72 51.5564 1118.49 36.7167 1118.49 35.143C1118.49 33.5693 1123.31 27.7893 1123.31 27.7893L1127.41 33.2605C1126.65 34.8489 1121.72 52.2771 1121.22 51.9241Z" fill="#A95C40"/>
<path fill-rule="evenodd" clip-rule="evenodd" d="M1145.16 21.8768C1131.93 21.8768 1121.09 33.8339 1121.09 48.5854C1121.09 63.337 1131.81 75.2793 1145.16 75.2793C1158.52 75.2793 1169.26 63.3222 1169.26 48.5707C1169.26 33.8192 1158.4 21.8768 1145.16 21.8768Z" fill="#FBD6A0"/>
<path fill-rule="evenodd" clip-rule="evenodd" d="M1121.12 50.8503C1122.16 64.5282 1133.21 75.2793 1145.11 75.2793C1157 75.2793 1165.7 66.8226 1168.4 55.3508C1168.7 53.1888 1168.87 51.6298 1168.87 51.6298C1167.77 54.9243 1164.87 65.9401 1158.5 67.705C1156.5 68.2492 1155.78 60.6013 1153.84 59.7336C1151.9 58.8659 1149.28 60.1454 1145.37 60.1895C1141.46 60.2337 1139.49 59.1747 1137.35 59.6895C1135.22 60.2042 1133.9 67.2344 1133.07 67.1902C1125.43 66.8079 1121.38 51.4092 1121.12 50.8503ZM1144.87 62.6163L1152.46 61.9838C1152.49 64.0482 1152.22 66.106 1151.64 68.0874C1149.83 73.0879 1138.22 71.7054 1137.37 67.2491C1137 65.5105 1137.03 63.7114 1137.44 61.9838L1144.87 62.6163Z" fill="#F5B386"/>
<path fill-rule="evenodd" clip-rule="evenodd" d="M1134.38 44.4085C1134.93 44.4385 1135.47 44.5767 1135.96 44.8152C1136.46 45.0538 1136.9 45.3879 1137.26 45.7982C1137.62 46.2086 1137.9 46.687 1138.08 47.2058C1138.26 47.7246 1138.33 48.2735 1138.3 48.8207C1138.06 49.9369 1137.41 50.9202 1136.47 51.5645C1135.53 52.2088 1134.38 52.4641 1133.25 52.277C1132.7 52.2436 1132.16 52.0999 1131.66 51.8544C1131.16 51.6088 1130.72 51.2664 1130.36 50.8471C1129.99 50.4278 1129.72 49.9402 1129.54 49.4129C1129.37 48.8856 1129.31 48.3292 1129.35 47.7765C1129.6 46.6796 1130.27 45.72 1131.2 45.0939C1132.14 44.4678 1133.27 44.2227 1134.38 44.4085Z" fill="white"/>
<path fill-rule="evenodd" clip-rule="evenodd" d="M1156.42 44.585C1156.97 44.6165 1157.51 44.7584 1158.01 45.0024C1158.5 45.2464 1158.95 45.5875 1159.31 46.0056C1159.67 46.4237 1159.95 46.9103 1160.12 47.4368C1160.29 47.9632 1160.36 48.5188 1160.31 49.0708C1160.08 50.184 1159.43 51.1649 1158.49 51.8088C1157.55 52.4527 1156.41 52.71 1155.28 52.527C1154.73 52.4974 1154.19 52.3569 1153.69 52.1138C1153.19 51.8706 1152.74 51.5298 1152.38 51.1115C1152.01 50.6932 1151.74 50.2059 1151.56 49.6785C1151.39 49.1511 1151.32 48.5944 1151.37 48.0413C1151.6 46.9251 1152.26 45.9418 1153.2 45.2975C1154.14 44.6532 1155.29 44.3979 1156.42 44.585Z" fill="white"/>
<path fill-rule="evenodd" clip-rule="evenodd" d="M1168.95 52.4535C1169.09 54.0566 1171.8 35.4076 1171.8 33.8487C1171.8 32.2897 1166.98 26.495 1166.98 26.495C1166.62 24.0596 1165.93 21.6872 1164.9 19.4501C1158 6.56647 1123.31 21.1562 1113.63 16.7881C1113.48 16.7146 1111.41 38.8492 1150.24 33.8487C1160.65 32.5103 1162.87 31.9661 1162.87 31.9661C1169.92 39.6875 1168.08 43.0996 1168.95 52.4535Z" fill="#A95C40"/>
<path fill-rule="evenodd" clip-rule="evenodd" d="M1155.71 51.1739C1156.27 51.1593 1156.81 50.9806 1157.27 50.66C1157.73 50.3394 1158.09 49.8908 1158.3 49.3699C1158.51 48.849 1158.56 48.2785 1158.44 47.7291C1158.33 47.1798 1158.06 46.6756 1157.66 46.279C1157.27 45.8824 1156.76 45.6108 1156.21 45.4978C1155.66 45.3848 1155.09 45.4353 1154.57 45.6432C1154.05 45.8511 1153.6 46.2072 1153.28 46.6674C1152.96 47.1276 1152.78 47.6717 1152.77 48.2324C1152.77 49.0125 1153.08 49.7607 1153.63 50.3123C1154.18 50.864 1154.93 51.1739 1155.71 51.1739Z" fill="#3E3A39"/>
<path fill-rule="evenodd" clip-rule="evenodd" d="M1154.37 48.1736C1154.55 48.1707 1154.71 48.1165 1154.86 48.0178C1155 47.9191 1155.11 47.7802 1155.18 47.6188C1155.24 47.4573 1155.26 47.2803 1155.22 47.1101C1155.18 46.9399 1155.1 46.7841 1154.98 46.6621C1154.85 46.5402 1154.69 46.4576 1154.52 46.4247C1154.35 46.3919 1154.18 46.4102 1154.02 46.4774C1153.86 46.5446 1153.72 46.6577 1153.62 46.8024C1153.53 46.9472 1153.47 47.1172 1153.47 47.2911C1153.47 47.4083 1153.5 47.5242 1153.54 47.6323C1153.59 47.7403 1153.65 47.8382 1153.74 47.9204C1153.82 48.0025 1153.92 48.0672 1154.03 48.1107C1154.14 48.1541 1154.25 48.1755 1154.37 48.1736Z" fill="#EEEEEF"/>
<path fill-rule="evenodd" clip-rule="evenodd" d="M1151.72 44.4233C1153.98 43.9996 1156.3 44.0346 1158.55 44.5262C1161 45.291 1162.11 44.085 1159 42.8937C1156.66 42.1283 1154.15 42.0164 1151.75 42.5701C1150.3 42.9819 1150.25 44.7762 1151.72 44.4233Z" fill="#A95C40"/>
<path fill-rule="evenodd" clip-rule="evenodd" d="M1134.1 50.7034C1134.66 50.6976 1135.2 50.5271 1135.67 50.2133C1136.13 49.8995 1136.48 49.4564 1136.69 48.94C1136.9 48.4235 1136.95 47.8567 1136.84 47.3109C1136.73 46.765 1136.46 46.2646 1136.06 45.8727C1135.67 45.4807 1135.16 45.2146 1134.62 45.1081C1134.07 45.0015 1133.5 45.0591 1132.99 45.2736C1132.47 45.4882 1132.03 45.8501 1131.73 46.3138C1131.42 46.7776 1131.25 47.3223 1131.25 47.8796C1131.25 48.2523 1131.33 48.6211 1131.47 48.9647C1131.62 49.3084 1131.83 49.6202 1132.09 49.8824C1132.36 50.1446 1132.67 50.3521 1133.02 50.493C1133.36 50.6338 1133.73 50.7053 1134.1 50.7034Z" fill="#3E3A39"/>
<path fill-rule="evenodd" clip-rule="evenodd" d="M1132.78 47.7618C1132.96 47.7618 1133.13 47.7101 1133.27 47.6131C1133.42 47.5162 1133.53 47.3783 1133.6 47.2171C1133.66 47.0558 1133.68 46.8784 1133.65 46.7072C1133.61 46.5361 1133.53 46.3788 1133.4 46.2554C1133.28 46.132 1133.12 46.048 1132.95 46.0139C1132.78 45.9799 1132.6 45.9973 1132.44 46.0641C1132.28 46.1309 1132.14 46.244 1132.05 46.3891C1131.95 46.5342 1131.9 46.7049 1131.9 46.8794C1131.9 47.1134 1131.99 47.3379 1132.16 47.5034C1132.32 47.6689 1132.55 47.7618 1132.78 47.7618Z" fill="#EEEEEF"/>
<path fill-rule="evenodd" clip-rule="evenodd" d="M1136.87 44.1439C1134.81 43.7685 1132.7 43.8035 1130.66 44.2469C1128.44 44.9528 1127.44 43.8498 1130.25 42.7761C1132.38 42.0855 1134.65 41.9838 1136.83 42.482C1138.15 42.8496 1138.19 44.4822 1136.87 44.1439Z" fill="#A95C40"/>
<path fill-rule="evenodd" clip-rule="evenodd" d="M1137.44 61.9249C1137.63 63.788 1138.5 65.516 1139.89 66.7729C1141.27 68.0298 1143.08 68.7259 1144.95 68.7259C1146.82 68.7259 1148.63 68.0298 1150.02 66.7729C1151.4 65.516 1152.27 63.788 1152.46 61.9249H1137.44Z" fill="#4F2211"/>
<path fill-rule="evenodd" clip-rule="evenodd" d="M1138.96 61.9249H1150.94V63.6016C1150.96 63.7647 1150.91 63.9264 1150.8 64.0525C1150.7 64.1787 1150.55 64.2596 1150.39 64.2781H1139.53C1139.37 64.2631 1139.21 64.1838 1139.11 64.0573C1139 63.9307 1138.95 63.767 1138.96 63.6016V61.9249Z" fill="white"/>
<path fill-rule="evenodd" clip-rule="evenodd" d="M1141.38 56.5569C1141.38 57.5423 1143.09 58.3365 1145.11 58.3365C1147.12 58.3365 1148.77 57.5423 1148.84 56.5569H1141.38Z" fill="#DF9C72"/>
<path fill-rule="evenodd" clip-rule="evenodd" d="M1113.63 16.7881C1113.59 19.4985 1114.27 22.1712 1115.62 24.5242C1116.96 26.8772 1118.92 28.8233 1121.28 30.1571C1122.72 31.0427 1124.26 31.763 1125.87 32.3044L1127.34 32.7603C1134.19 34.7605 1167.53 36.4372 1167.05 26.2155C1167.05 26.2155 1164.28 26.8186 1160.12 27.348L1157.43 27.6422C1152.76 27.8385 1148.1 27.1498 1143.69 25.6125C1144.96 26.7653 1146.37 27.7536 1147.89 28.554C1148.72 28.8188 1147.15 28.7305 1142.91 28.1275C1140.77 27.8334 1136.33 26.6568 1132.41 25.6861C1128.5 24.7154 1125.31 23.73 1125.18 23.6712C1126.11 25.106 1127.14 26.4724 1128.27 27.7598C1128.63 28.0834 1126.52 27.3921 1121.44 23.8918C1118.48 21.8635 1115.85 19.3819 1113.66 16.5381L1113.63 16.7881Z" fill="#9F553D"/>
<path fill-rule="evenodd" clip-rule="evenodd" d="M1026.27 35.5399C1026.62 36.2017 1029.81 39.658 1036.57 43.7319C1043.32 47.8059 1054.73 50.8209 1054.66 50.4385C1054.58 50.0561 1048.08 44.9085 1048.61 45.1732C1049.14 45.438 1056.66 47.6 1056.07 47.6882C1055.48 47.7764 1049.42 39.8639 1049.42 39.8639L1055.74 42.1141C1054.32 38.7837 1052.07 35.8691 1049.21 33.6426C1044.8 30.5394 1031.29 29.4805 1031.9 29.6128C1032.52 29.7452 1039.07 33.2897 1039.07 33.2897C1033.94 31.6924 1028.55 31.0982 1023.2 31.5395C1023.55 31.5395 1030.55 34.4074 1030.55 34.4074L1024.67 33.3485L1026.27 35.5399Z" fill="#7D4025"/>
<path fill-rule="evenodd" clip-rule="evenodd" d="M1022.37 42.982C1022 44.188 1020.33 46.9824 1015.92 55.145C1011.5 63.3076 1009.11 65.1019 1009.11 65.1019C1009.11 65.1019 1010.12 72.0585 1011.27 78.2503C1012.42 84.4421 1016.67 93.5754 1015.55 92.2811C1012.42 86.6015 1009.89 80.6129 1008 74.4117C1006.89 69.7053 1006.71 67.7786 1006.71 68.4258C1006.71 69.0729 1007.08 78.4562 1007.08 77.2502C1007.08 76.0442 1003.21 65.7784 1003.66 58.263C1004.12 50.7475 1004.87 48.7767 1004.87 48.7767C1004.87 48.7767 1005.08 53.3213 1005.05 52.9683C1006.46 48.4853 1008.53 44.234 1011.18 40.3494C1014.36 36.3342 1016.2 34.9517 1015.74 35.4665C1015.28 35.9813 1012.62 45.3057 1012.8 44.7763C1012.97 44.2468 1018.83 35.643 1018.68 36.1577C1018.53 36.6725 1017.34 40.57 1015.42 46.0117C1013.49 51.4534 1011.64 55.3215 1012.47 54.5861C1013.31 53.8507 1022.37 42.982 1022.37 42.982Z" fill="#7D4025"/>
<path fill-rule="evenodd" clip-rule="evenodd" d="M1054.7 76.2059C1052.26 84.3685 1049.3 90.1632 1049.95 89.2513C1050.6 88.3394 1053.64 83.5301 1053.4 84.4126C1053.17 85.295 1051.05 93.237 1051.51 92.4281C1051.96 91.6192 1057.71 75.4411 1058.86 68.8963C1059.49 63.9738 1059.41 58.9876 1058.64 54.0859C1058.64 54.586 1058.27 63.8516 1058.32 62.3809C1057.98 59.6422 1057.39 56.9398 1056.57 54.3065C1057.28 61.6592 1056.65 69.0801 1054.7 76.2059Z" fill="#7D4025"/>
<path fill-rule="evenodd" clip-rule="evenodd" d="M1088.79 181.673C1087.75 180.393 1086.14 177.893 1087.11 176.216C1085.44 176.378 1083.58 179.246 1083.39 179.805C1083.5 178.015 1083.9 176.256 1084.58 174.598C1085.89 171.657 1089.67 168.421 1090.89 167.421L1091.26 167.112L1090.67 167.215C1080.63 169.201 1071.23 183.07 1077.8 186.188C1077.91 186.188 1077.41 186.261 1079.11 186.997C1080.78 187.502 1082.55 187.598 1084.26 187.276C1083.46 187.669 1082.61 187.946 1081.73 188.1C1080.95 188.1 1082.75 188.791 1087.03 188.703C1090.08 188.572 1093.12 188.168 1096.1 187.497C1095.33 188.054 1094.51 188.546 1093.66 188.968C1093.2 189.056 1095.23 189.703 1100.44 187.909C1101.04 187.688 1101.59 187.497 1102.04 187.306C1103.81 186.1 1104.98 185.158 1104.98 185.158C1104.98 185.158 1103 183.32 1101.37 181.761H1100.6L1102.34 184.497C1100.56 185.189 1098.62 185.322 1096.76 184.879C1093.82 184.085 1092.2 181.673 1091.85 181.673C1091.5 181.673 1091.85 184.364 1091.85 184.364C1091.85 184.364 1091.44 184.364 1089.73 182.702C1089.4 182.376 1089.09 182.032 1088.79 181.673Z" fill="#A5573B"/>
</g>
<defs>
<linearGradient id="paint0_linear" x1="-13.3729" y1="-0.655537" x2="-4.54785" y2="194.056" gradientUnits="userSpaceOnUse">
<stop stop-color="#FEA244"/>
<stop offset="1" stop-color="#FD9147"/>
</linearGradient>
<linearGradient id="paint1_linear" x1="979.103" y1="188.938" x2="983.001" y2="198.277" gradientUnits="userSpaceOnUse">
<stop stop-color="#FBE5D5"/>
<stop offset="1" stop-color="#F8CAA8"/>
</linearGradient>
</defs>
</svg>
