<svg width="105" height="13" viewBox="0 0 105 13" fill="none" xmlns="http://www.w3.org/2000/svg">
<path d="M28.2974 10.3909C27.4554 10.3984 26.6137 10.3524 25.7777 10.2531C25.7359 10.2499 25.6951 10.2385 25.6578 10.2196C25.6205 10.2006 25.5873 10.1745 25.5603 10.1428C25.5333 10.1111 25.5129 10.0744 25.5004 10.0348C25.4878 9.99524 25.4833 9.9536 25.4872 9.91231V0.506577C25.4812 0.423321 25.5082 0.341019 25.5624 0.277006C25.6165 0.212994 25.6937 0.172267 25.7777 0.163404C26.6138 0.0652228 27.4554 0.0199967 28.2974 0.0280028C30.8596 0.0280028 32.4937 1.32832 32.4937 4.28381V6.13274C32.4937 9.06255 30.8596 10.3909 28.2974 10.3909ZM31.235 4.28381C31.235 1.8069 29.9598 1.09487 28.2974 1.09487C27.648 1.09487 27.2182 1.10888 26.7624 1.13689V9.30767C27.204 9.33335 27.648 9.33335 28.2974 9.33335C29.9504 9.33335 31.235 8.60965 31.235 6.14441V4.28381Z" fill="#A3B0BD"/>
<path d="M39.8615 6.91248H35.2212V7.07823C35.2212 8.65169 35.9698 9.37772 37.245 9.37772C38.0357 9.36819 38.8247 9.30422 39.6064 9.18629H39.6773C39.7048 9.18261 39.7328 9.18482 39.7594 9.19278C39.7859 9.20073 39.8105 9.21425 39.8313 9.23241C39.8522 9.25056 39.8688 9.27294 39.8801 9.29801C39.8914 9.32309 39.8971 9.35027 39.8969 9.37772V9.84462C39.8969 10.022 39.8426 10.1178 39.6206 10.1598C38.8375 10.3193 38.0397 10.3975 37.2402 10.3932C35.6581 10.3909 34.005 9.63685 34.005 7.00353V6.04638C34.005 4.10174 35.1008 2.66602 37.0749 2.66602C39.0964 2.66602 40.1212 4.08773 40.1212 6.03238V6.60666C40.1236 6.79109 40.0268 6.91248 39.8615 6.91248ZM38.8909 5.92732C38.8909 4.46359 38.2958 3.72355 37.0773 3.72355C35.8588 3.72355 35.2212 4.51728 35.2212 5.92732V5.99502H38.8909V5.92732Z" fill="#A3B0BD"/>
<path d="M47.6023 3.09323L45.8289 9.31003C45.5927 10.1715 45.0401 10.3909 44.4852 10.3909C43.9303 10.3909 43.3918 10.1715 43.1439 9.31003L41.3704 3.09323C41.3596 3.06251 41.3548 3.03002 41.3563 2.99752C41.3532 2.96731 41.3567 2.9368 41.3666 2.90805C41.3765 2.8793 41.3925 2.85298 41.4135 2.83085C41.4346 2.80873 41.4601 2.79132 41.4886 2.7798C41.517 2.76828 41.5476 2.76292 41.5782 2.76407H42.3386C42.4496 2.76407 42.5606 2.84578 42.6031 3.0232L44.1593 8.96686C44.242 9.31003 44.353 9.39174 44.4899 9.39174C44.6269 9.39174 44.7402 9.31003 44.8229 8.96686L46.3696 3.03487C46.4121 2.85745 46.5208 2.77574 46.6318 2.77574H47.4087C47.4376 2.77337 47.4667 2.77746 47.4938 2.7877C47.521 2.79795 47.5454 2.8141 47.5653 2.83494C47.5853 2.85579 47.6003 2.88081 47.6091 2.90814C47.618 2.93547 47.6205 2.96442 47.6165 2.99285C47.617 3.02683 47.6123 3.0607 47.6023 3.09323Z" fill="#A3B0BD"/>
<path d="M54.7339 6.91248H50.0937V7.07823C50.0937 8.65169 50.8423 9.37772 52.1151 9.37772C52.9058 9.36807 53.6948 9.30411 54.4765 9.18629H54.5474C54.5748 9.183 54.6027 9.18549 54.6291 9.19359C54.6555 9.20169 54.6799 9.21523 54.7006 9.23331C54.7214 9.25139 54.738 9.2736 54.7494 9.29849C54.7609 9.32338 54.7669 9.35039 54.767 9.37772V9.84462C54.767 10.022 54.7127 10.1178 54.4907 10.1598C53.7069 10.3194 52.9083 10.3976 52.108 10.3932C50.5353 10.3909 48.8822 9.63685 48.8822 7.00353V6.04638C48.8822 4.10174 49.978 2.66602 51.9521 2.66602C53.9735 2.66602 54.9984 4.08773 54.9984 6.03238V6.60666C54.9961 6.79109 54.8992 6.91248 54.7339 6.91248ZM53.7634 5.92732C53.7634 4.46359 53.1683 3.72355 51.9498 3.72355C50.7313 3.72355 50.0937 4.51728 50.0937 5.92732V5.99502H53.7634V5.92732Z" fill="#A3B0BD"/>
<path d="M57.7377 10.2952H57.0174C56.9498 10.2881 56.8875 10.2555 56.8435 10.2042C56.7996 10.1529 56.7773 10.0868 56.7813 10.0197V0.25913C56.7781 0.193866 56.8011 0.129992 56.8453 0.0814455C56.8896 0.032899 56.9514 0.00362104 57.0174 0L57.7377 0C57.7715 0.000288828 57.8049 0.00727605 57.8359 0.0205482C57.8669 0.0338203 57.8949 0.0531076 57.9182 0.0772687C57.9416 0.10143 57.9598 0.129974 57.9718 0.161211C57.9837 0.192449 57.9893 0.225745 57.988 0.25913V10.0197C57.9899 10.0541 57.9849 10.0884 57.9734 10.1209C57.9618 10.1533 57.9439 10.1832 57.9207 10.2088C57.8974 10.2344 57.8693 10.2552 57.8379 10.27C57.8065 10.2848 57.7724 10.2934 57.7377 10.2952Z" fill="#A3B0BD"/>
<path d="M62.8337 10.3909C60.7981 10.3909 59.7638 9.06254 59.7638 7.05019V6.009C59.7638 3.99665 60.8029 2.67065 62.8337 2.67065C64.8646 2.67065 65.9225 3.99665 65.9225 6.009V7.05019C65.9225 9.06254 64.8693 10.3909 62.8337 10.3909ZM64.704 6.009C64.704 4.6083 64.1349 3.72352 62.8337 3.72352C61.5326 3.72352 60.9776 4.59896 60.9776 6.009V7.05019C60.9776 8.4509 61.5326 9.33567 62.8337 9.33567C64.1349 9.33567 64.704 8.46023 64.704 7.05019V6.009Z" fill="#A3B0BD"/>
<path d="M70.3951 10.3909C69.8519 10.3829 69.3102 10.3321 68.7752 10.2391V12.7184C68.7746 12.7873 68.7464 12.8532 68.6969 12.9018C68.6473 12.9503 68.5804 12.9775 68.5107 12.9775H67.8023C67.7686 12.9772 67.7353 12.9702 67.7044 12.9569C67.6735 12.9436 67.6456 12.9243 67.6225 12.9001C67.5993 12.8759 67.5814 12.8473 67.5696 12.8161C67.5579 12.7849 67.5527 12.7516 67.5543 12.7184V3.29864C67.5543 3.12121 67.5944 3.03951 67.8448 2.98348C68.6796 2.78539 69.5343 2.68046 70.3928 2.67065C72.4543 2.67065 73.4107 3.99665 73.4107 6.05102V7.03618C73.4131 9.18626 72.4166 10.3909 70.3951 10.3909ZM72.1946 6.05102C72.1946 4.61296 71.7648 3.6815 70.3951 3.6815C69.8523 3.68514 69.3106 3.73119 68.7752 3.81923V9.23996C69.3109 9.32587 69.8524 9.37191 70.3951 9.37769C71.7506 9.37769 72.1946 8.50225 72.1946 7.04319V6.05102Z" fill="#A3B0BD"/>
<path d="M83.9641 10.2952H83.2439C83.2089 10.2943 83.1745 10.2864 83.1427 10.2719C83.111 10.2574 83.0826 10.2365 83.0593 10.2107C83.0361 10.1849 83.0184 10.1546 83.0075 10.1217C82.9966 10.0889 82.9927 10.0541 82.9959 10.0197V5.06586C82.9959 3.88693 82.4835 3.72352 81.7491 3.72352H81.4303C80.5447 3.72352 80.2495 3.87526 80.2495 4.65732V10.0267C80.2524 10.0612 80.2482 10.096 80.237 10.1289C80.2258 10.1618 80.208 10.192 80.1845 10.2178C80.1611 10.2436 80.1325 10.2644 80.1007 10.2789C80.0688 10.2934 80.0343 10.3013 79.9992 10.3022H79.279C79.244 10.3013 79.2096 10.2934 79.1778 10.2789C79.1461 10.2644 79.1177 10.2435 79.0944 10.2177C79.0712 10.1919 79.0536 10.1616 79.0426 10.1287C79.0317 10.0959 79.0278 10.0611 79.031 10.0267V4.65732C79.031 3.8776 78.7264 3.72352 77.8503 3.72352H77.5315C76.8113 3.72352 76.2847 3.88693 76.2847 5.06586V10.0197C76.2876 10.0542 76.2833 10.089 76.2721 10.1219C76.2609 10.1548 76.2431 10.185 76.2196 10.2108C76.1962 10.2366 76.1677 10.2574 76.1358 10.2719C76.1039 10.2864 76.0694 10.2943 76.0343 10.2952H75.3259C75.2908 10.2943 75.2563 10.2864 75.2244 10.2719C75.1926 10.2574 75.1641 10.2366 75.1406 10.2108C75.1172 10.185 75.0993 10.1548 75.0881 10.1219C75.0769 10.089 75.0727 10.0542 75.0756 10.0197V5.06586C75.0756 3.66515 75.8785 2.67065 77.5409 2.67065H77.8597C78.6886 2.67065 79.2294 2.77804 79.6592 3.16324C80.0748 2.80606 80.6274 2.67065 81.4586 2.67065H81.7774C83.4304 2.67065 84.2428 3.65582 84.2428 5.06586V10.0197C84.246 10.0567 84.241 10.0939 84.2282 10.1288C84.2153 10.1637 84.1949 10.1953 84.1683 10.2216C84.1418 10.2478 84.1098 10.268 84.0745 10.2807C84.0392 10.2934 84.0015 10.2984 83.9641 10.2952Z" fill="#A3B0BD"/>
<path d="M91.7333 6.91256H87.0954V7.07831C87.0954 8.65177 87.8416 9.3778 89.1168 9.3778C89.9075 9.36827 90.6965 9.3043 91.4782 9.18637H91.5491C91.5767 9.18272 91.6048 9.18494 91.6315 9.19288C91.6582 9.20082 91.6829 9.21429 91.7039 9.23241C91.7249 9.25053 91.7418 9.27287 91.7534 9.29794C91.7649 9.32302 91.771 9.35024 91.7711 9.3778V9.8447C91.7711 10.0221 91.7144 10.1178 91.4924 10.1599C90.7094 10.3195 89.9116 10.3977 89.112 10.3933C87.5181 10.3933 85.8721 9.63927 85.8721 7.01061V6.05346C85.8721 4.10882 86.9655 2.6731 88.942 2.6731C90.9658 2.6731 91.9883 4.09481 91.9883 6.03946V6.61375C91.9954 6.79117 91.8986 6.91256 91.7333 6.91256ZM90.7651 5.9274C90.7651 4.46366 90.1676 3.72362 88.9491 3.72362C87.7306 3.72362 87.0954 4.51736 87.0954 5.9274V5.9951H90.7651V5.9274Z" fill="#A3B0BD"/>
<path d="M99.2097 10.2953H98.5012C98.465 10.2964 98.4289 10.2899 98.3953 10.2763C98.3618 10.2626 98.3315 10.2421 98.3066 10.2161C98.2816 10.1901 98.2625 10.1592 98.2504 10.1253C98.2384 10.0915 98.2337 10.0555 98.2368 10.0198V5.136C98.2368 4.10882 97.9746 3.71195 97.0324 3.71195H96.0477C95.1031 3.71195 94.8433 4.10882 94.8433 5.136V10.0198C94.8466 10.0533 94.843 10.0871 94.8328 10.1192C94.8226 10.1513 94.806 10.1811 94.784 10.2068C94.762 10.2324 94.735 10.2535 94.7047 10.2687C94.6743 10.2839 94.6412 10.2929 94.6072 10.2953H93.887C93.8519 10.2944 93.8174 10.2865 93.7855 10.272C93.7536 10.2575 93.7251 10.2367 93.7017 10.2109C93.6782 10.1851 93.6604 10.1549 93.6492 10.122C93.638 10.0891 93.6337 10.0543 93.6366 10.0198V5.136C93.6366 3.03494 95.1196 2.6731 96.0595 2.6731H97.0442C97.9888 2.6731 99.4671 3.02794 99.4671 5.136V10.0198C99.47 10.0549 99.4655 10.0903 99.4539 10.1236C99.4423 10.157 99.4238 10.1876 99.3996 10.2135C99.3754 10.2394 99.3461 10.26 99.3134 10.2741C99.2807 10.2882 99.2453 10.2954 99.2097 10.2953Z" fill="#A3B0BD"/>
<path d="M104.721 10.3092C104.28 10.3639 103.836 10.3912 103.392 10.3909C102.091 10.3909 101.344 9.96599 101.344 8.48825V1.42403C101.344 1.2863 101.467 1.19058 101.621 1.16257L102.298 1.05518H102.327C102.36 1.05498 102.393 1.06175 102.424 1.07506C102.454 1.08836 102.481 1.10789 102.504 1.13237C102.526 1.15685 102.543 1.18571 102.553 1.21707C102.563 1.24843 102.567 1.28157 102.563 1.31431V2.76637H104.721C104.756 2.76222 104.79 2.76556 104.823 2.77617C104.856 2.78678 104.886 2.8044 104.912 2.82778C104.937 2.85116 104.956 2.87973 104.969 2.91148C104.982 2.94322 104.988 2.97737 104.986 3.0115V3.4784C104.987 3.51279 104.981 3.54702 104.968 3.57894C104.955 3.61086 104.935 3.63978 104.91 3.66389C104.885 3.688 104.856 3.70678 104.823 3.71905C104.791 3.73132 104.756 3.73682 104.721 3.73519H102.563V8.48825C102.563 9.28198 102.825 9.42205 103.588 9.42205H104.709C104.903 9.42205 105 9.47808 105 9.61582V10.0827C105 10.1994 104.929 10.2718 104.721 10.3092Z" fill="#A3B0BD"/>
<path d="M7.4504 10.2718C6.82698 10.3675 5.08894 10.4912 4.48677 10.4912C1.81359 10.5052 -7.08681e-06 9.83988 -7.08681e-06 6.51321V0.466836C-0.000348779 0.431198 0.00661803 0.39586 0.0204728 0.362957C0.0343276 0.330054 0.054783 0.300267 0.0806042 0.275395C0.106425 0.250523 0.137077 0.231081 0.170709 0.218244C0.204341 0.205406 0.240255 0.199439 0.276284 0.200702H2.53384C2.56995 0.1991 2.60602 0.204835 2.6398 0.217551C2.67359 0.230267 2.70438 0.249695 2.73027 0.274635C2.75616 0.299576 2.77661 0.329499 2.79034 0.362556C2.80408 0.395614 2.81081 0.431104 2.81013 0.466836V6.51321C2.81013 7.7435 3.22575 8.14737 4.21048 8.14737C4.65491 8.14678 5.0989 8.11949 5.53998 8.06566V0.466836C5.5393 0.431104 5.54603 0.395614 5.55977 0.362556C5.5735 0.329499 5.59395 0.299576 5.61984 0.274635C5.64573 0.249695 5.67652 0.230267 5.71031 0.217551C5.74409 0.204835 5.78016 0.1991 5.81627 0.200702H8.05966C8.09645 0.19914 8.13319 0.204803 8.16776 0.217363C8.20232 0.229924 8.23403 0.249133 8.26103 0.273881C8.28804 0.298628 8.30982 0.328423 8.32511 0.361543C8.3404 0.394662 8.3489 0.43045 8.35012 0.466836V9.22357C8.35012 9.98929 8.11397 10.1807 7.4504 10.2718Z" fill="#5D748A"/>
<path d="M12.6976 10.3722H10.4258C10.3534 10.3709 10.2843 10.3416 10.2335 10.2905C10.1827 10.2394 10.1543 10.1707 10.1543 10.099V0.466836C10.154 0.431601 10.1608 0.39666 10.1743 0.364074C10.1879 0.331489 10.2079 0.30192 10.2332 0.277113C10.2586 0.252306 10.2886 0.232764 10.3217 0.21964C10.3548 0.206517 10.3902 0.200077 10.4258 0.200702H12.6976C12.7337 0.1991 12.7697 0.204835 12.8035 0.217551C12.8373 0.230267 12.8681 0.249695 12.894 0.274635C12.9199 0.299576 12.9403 0.329499 12.9541 0.362556C12.9678 0.395614 12.9745 0.431104 12.9739 0.466836V10.099C12.9739 10.1715 12.9447 10.2409 12.8929 10.2922C12.8411 10.3434 12.7708 10.3722 12.6976 10.3722Z" fill="#5D748A"/>
<path d="M20.7289 10.2509C20.0991 10.4304 19.4456 10.5162 18.7902 10.5053C16.2422 10.5053 14.5254 9.12796 14.5254 5.99271V4.59201C14.5254 1.44743 16.2422 0.0794053 18.7902 0.0794053C19.4446 0.0605136 20.0982 0.139214 20.7289 0.312856C20.9509 0.382891 21.0336 0.422578 21.0336 0.614008V2.36722C21.0336 2.54465 20.9509 2.62635 20.7974 2.62635H20.7549C20.1113 2.55111 19.4642 2.50981 18.8161 2.50262C18.0676 2.50262 17.3993 2.83179 17.3993 4.571V5.9717C17.3993 7.6969 18.0628 8.03774 18.8161 8.03774C19.4598 8.03777 20.103 8.00426 20.7431 7.93736H20.7809C20.9462 7.93736 21.017 8.01906 21.017 8.19649V9.9497C21.0336 10.1271 20.9509 10.1808 20.7289 10.2509Z" fill="#5D748A"/>
</svg>
