<svg width="110" height="110" viewBox="0 0 110 110" fill="none" xmlns="http://www.w3.org/2000/svg">
<path fill-rule="evenodd" clip-rule="evenodd" d="M82.7656 78.2582C97.7069 66.595 110 56.9991 110 38C110 17.0132 92.9866 0 71.9998 0C56.7098 0 44.4996 8.5 35.9996 21.5C29.4501 29.8564 25.2918 35.323 22.0354 39.6039C18.0825 44.8004 15.4586 48.2497 11.5 53C11.1406 53.4312 10.8066 53.8712 10.4971 54.3191C4.26809 61.9707 0 70.8374 0 78.5C0 95.897 14.103 110 31.5 110C39.6649 110 49.4171 104.934 56.3827 98.6781C56.6026 98.5099 56.8197 98.3439 57.034 98.18C71.2208 87.3319 72.9725 85.9925 78 82C79.6102 80.7214 81.2024 79.4785 82.7656 78.2582Z" fill="#653DCA"/>
</svg>
